<svg id="basket-arrowprod" xmlns="http://www.w3.org/2000/svg" width="37.482" height="21.941" viewBox="0 0 37.482 21.941">
  <g id="basket-icon" transform="translate(12.518)">
    <path id="Path_1" data-name="Path 1" d="M8.043,14.627H21.307a.731.731,0,0,0,.7-.53L24.935,3.858a.731.731,0,0,0-.7-.932H6.356L5.833.573A.731.731,0,0,0,5.119,0H.731a.731.731,0,1,0,0,1.463h3.8L7.173,13.345a2.194,2.194,0,0,0,.872,4.207H21.307a.731.731,0,1,0,0-1.463H8.045a.731.731,0,0,1,0-1.463ZM23.262,4.388l-2.508,8.776H8.631L6.681,4.388Zm0,0" transform="translate(0 0)" fill="#fff"/>
    <path id="Path_2" data-name="Path 2" d="M150,362.194A2.194,2.194,0,1,0,152.194,360,2.2,2.2,0,0,0,150,362.194Zm2.194-.731a.731.731,0,1,1-.731.731A.732.732,0,0,1,152.194,361.463Zm0,0" transform="translate(-142.686 -342.447)" fill="#fff"/>
    <path id="Path_3" data-name="Path 3" d="M362,362.194A2.194,2.194,0,1,0,364.194,360,2.2,2.2,0,0,0,362,362.194Zm2.194-.731a.731.731,0,1,1-.731.731A.732.732,0,0,1,364.194,361.463Zm0,0" transform="translate(-344.35 -342.447)" fill="#fff"/>
  </g>
  <g id="back-arrow" transform="translate(0 5.277)">
    <g id="reply">
      <path id="Path_62" data-name="Path 62" d="M9.331,41.643V38.25l5.938,5.938L9.331,50.126V46.648c-4.241,0-7.21,1.357-9.331,4.326C.848,46.733,3.393,42.491,9.331,41.643Z" transform="translate(0 -38.25)" fill="#fff"/>
    </g>
  </g>
</svg>
