<svg xmlns="http://www.w3.org/2000/svg" width="38.684" height="34" viewBox="0 0 38.684 34"><g transform="translate(0)"><path d="M12.464,22.667H33.018a1.134,1.134,0,0,0,1.09-.822L38.641,5.978a1.133,1.133,0,0,0-1.09-1.445H9.85L9.04.888A1.134,1.134,0,0,0,7.933,0h-6.8a1.133,1.133,0,1,0,0,2.267H7.024L11.116,20.68a3.4,3.4,0,0,0,1.351,6.52H33.018a1.133,1.133,0,1,0,0-2.267H12.466a1.133,1.133,0,0,1,0-2.266ZM36.048,6.8,32.162,20.4H13.376L10.353,6.8Zm0,0" transform="translate(0 0)" fill="#2A2A2A"/><path d="M150,363.4a3.4,3.4,0,1,0,3.4-3.4A3.4,3.4,0,0,0,150,363.4Zm3.4-1.133a1.133,1.133,0,1,1-1.133,1.133A1.135,1.135,0,0,1,153.4,362.267Zm0,0" transform="translate(-138.667 -332.8)" fill="#2A2A2A"/><path d="M362,363.4a3.4,3.4,0,1,0,3.4-3.4A3.4,3.4,0,0,0,362,363.4Zm3.4-1.133a1.133,1.133,0,1,1-1.133,1.133A1.135,1.135,0,0,1,365.4,362.267Zm0,0" transform="translate(-334.649 -332.8)" fill="#2A2A2A"/></g></svg>