<svg xmlns="http://www.w3.org/2000/svg" width="19.734" height="17.345" viewBox="0 0 19.734 17.345">
  <g id="basketmob" transform="translate(0)">
    <path id="Path_1" data-name="Path 1" d="M6.358,11.563H16.843a.578.578,0,0,0,.556-.419L19.712,3.05a.578.578,0,0,0-.556-.737H5.025L4.611.453A.578.578,0,0,0,4.047,0H.578a.578.578,0,0,0,0,1.156H3.583L5.671,10.55a1.734,1.734,0,0,0,.689,3.326H16.843a.578.578,0,0,0,0-1.156H6.36a.578.578,0,0,1,0-1.156ZM18.39,3.469l-1.982,6.938H6.823L5.282,3.469Zm0,0" transform="translate(0 0)" fill="#fff"/>
    <path id="Path_2" data-name="Path 2" d="M150,361.734A1.734,1.734,0,1,0,151.734,360,1.736,1.736,0,0,0,150,361.734Zm1.734-.578a.578.578,0,1,1-.578.578A.579.579,0,0,1,151.734,361.156Zm0,0" transform="translate(-144.218 -346.124)" fill="#fff"/>
    <path id="Path_3" data-name="Path 3" d="M362,361.734A1.734,1.734,0,1,0,363.734,360,1.737,1.737,0,0,0,362,361.734Zm1.734-.578a.578.578,0,1,1-.578.578A.579.579,0,0,1,363.734,361.156Zm0,0" transform="translate(-348.047 -346.124)" fill="#fff"/>
  </g>
</svg>
