<svg id="basketheader" xmlns="http://www.w3.org/2000/svg" width="24.964" height="21.941" viewBox="0 0 24.964 21.941">
  <path id="Path_1" data-name="Path 1" d="M8.043,14.627H21.307a.731.731,0,0,0,.7-.53L24.935,3.858a.731.731,0,0,0-.7-.932H6.356L5.833.573A.731.731,0,0,0,5.119,0H.731a.731.731,0,1,0,0,1.463h3.8L7.173,13.345a2.194,2.194,0,0,0,.872,4.207H21.307a.731.731,0,1,0,0-1.463H8.045a.731.731,0,0,1,0-1.463ZM23.262,4.388l-2.508,8.776H8.631L6.681,4.388Zm0,0" transform="translate(0 0)" fill="#fff"/>
  <path id="Path_2" data-name="Path 2" d="M150,362.194A2.194,2.194,0,1,0,152.194,360,2.2,2.2,0,0,0,150,362.194Zm2.194-.731a.731.731,0,1,1-.731.731A.732.732,0,0,1,152.194,361.463Zm0,0" transform="translate(-142.686 -342.447)" fill="#fff"/>
  <path id="Path_3" data-name="Path 3" d="M362,362.194A2.194,2.194,0,1,0,364.194,360,2.2,2.2,0,0,0,362,362.194Zm2.194-.731a.731.731,0,1,1-.731.731A.732.732,0,0,1,364.194,361.463Zm0,0" transform="translate(-344.35 -342.447)" fill="#fff"/>
</svg>
