<svg id="basketblue" xmlns="http://www.w3.org/2000/svg" width="31.858" height="28" viewBox="0 0 31.858 28">
  <path id="Path_1" data-name="Path 1" d="M10.264,18.667H27.191a.934.934,0,0,0,.9-.677L31.822,4.923a.933.933,0,0,0-.9-1.19H8.112l-.667-3A.934.934,0,0,0,6.533,0H.933a.933.933,0,1,0,0,1.867H5.785l3.37,15.164A2.8,2.8,0,0,0,10.267,22.4H27.191a.933.933,0,1,0,0-1.867H10.267a.933.933,0,0,1,0-1.866ZM29.687,5.6l-3.2,11.2H11.015L8.526,5.6Zm0,0" transform="translate(0 0)" fill="#033792"/>
  <path id="Path_2" data-name="Path 2" d="M150,362.8a2.8,2.8,0,1,0,2.8-2.8A2.8,2.8,0,0,0,150,362.8Zm2.8-.933a.933.933,0,1,1-.933.933A.934.934,0,0,1,152.8,361.867Zm0,0" transform="translate(-140.667 -337.6)" fill="#033792"/>
  <path id="Path_3" data-name="Path 3" d="M362,362.8a2.8,2.8,0,1,0,2.8-2.8A2.8,2.8,0,0,0,362,362.8Zm2.8-.933a.933.933,0,1,1-.933.933A.935.935,0,0,1,364.8,361.867Zm0,0" transform="translate(-339.475 -337.6)" fill="#033792"/>
</svg>
