<svg xmlns="http://www.w3.org/2000/svg" width="53" height="52" fill="none" viewBox="0 0 53 52">
    <ellipse cx="26.5" cy="20.851" fill="#F8F8F8" filter="url(#a-cc-l)" rx="13.815" ry="13.24" transform="rotate(-180 26.5 20.85)"/>
    <path fill="#C9AD91" d="M30.672 23.933l-3.238-3.238 3.238-3.238a.847.847 0 0 0 0-1.181.847.847 0 0 0-1.181 0l-3.238 3.238-3.238-3.238a.847.847 0 0 0-1.181 0 .847.847 0 0 0 0 1.181l3.238 3.238-3.238 3.238a.847.847 0 0 0 0 1.18c.32.32.861.32 1.181 0l3.238-3.237 3.238 3.238c.32.32.861.32 1.18 0a.822.822 0 0 0 0-1.181z"/>
    <defs>
        <filter id="a-cc-l" width="53" height="51.849" x="0" y="0" color-interpolation-filters="sRGB" filterUnits="userSpaceOnUse">
            <feFlood flood-opacity="0" result="BackgroundImageFix"/>
            <feColorMatrix in="SourceAlpha" values="0 0 0 0 0 0 0 0 0 0 0 0 0 0 0 0 0 0 127 0"/>
            <feOffset dy="2"/>
            <feGaussianBlur stdDeviation="3"/>
            <feColorMatrix values="0 0 0 0 0 0 0 0 0 0 0 0 0 0 0 0 0 0 0.25 0"/>
            <feBlend in2="BackgroundImageFix" result="effect1_dropShadow"/>
            <feBlend in="SourceGraphic" in2="effect1_dropShadow" result="shape"/>
        </filter>
    </defs>
</svg>
