<svg id="dashboard-icon" xmlns="http://www.w3.org/2000/svg" width="38.428" height="37.575" viewBox="0 0 38.428 37.575">
  <path id="Path_21" data-name="Path 21" d="M311.758,297.134h0a.6.6,0,0,1,0-.844l8.059-7.97a.6.6,0,0,1,.769-.06l3.643,2.638a.6.6,0,0,0,.8-.089l10.179-11.554a.6.6,0,0,1,.83-.064l5.052,4.215a.6.6,0,0,0,.8-.037l6.784-6.783a.6.6,0,0,1,.844,0h0a.6.6,0,0,1,0,.845l-7.556,7.556a.6.6,0,0,1-.8.036l-5-4.169a.6.6,0,0,0-.83.063l-10.127,11.5a.6.6,0,0,1-.8.089l-3.7-2.68a.6.6,0,0,0-.769.06L312.6,297.14A.6.6,0,0,1,311.758,297.134Z" transform="translate(-311.585 -269.627)" fill="#2a2a2a"/>
  <path id="Path_22" data-name="Path 22" d="M329.434,269.864a13.663,13.663,0,0,0-10.742,5.207l10.742,8.486Z" transform="translate(-313.275 -268.071)" fill="#2a2a2a"/>
  <path id="Path_23" data-name="Path 23" d="M359.05,280.033a.6.6,0,0,1-.553-.822l.61-1.5-1.6.549a.6.6,0,1,1-.387-1.13l2.837-.973a.6.6,0,0,1,.747.789l-1.1,2.71A.6.6,0,0,1,359.05,280.033Z" transform="translate(-322.317 -269.56)" fill="#2a2a2a"/>
  <path id="Path_24" data-name="Path 24" d="M329.247,283.968a.6.6,0,0,1-.37-.128l-10.747-8.487a.6.6,0,0,1-.1-.839,14.219,14.219,0,0,1,11.211-5.434.6.6,0,0,1,.6.6v13.694a.6.6,0,0,1-.6.6Zm-9.893-9.173,9.3,7.344V270.288A13.012,13.012,0,0,0,319.354,274.8Z" transform="translate(-313.088 -267.884)" fill="#2a2a2a"/>
  <path id="Path_25" data-name="Path 25" d="M315.642,289.135a.6.6,0,0,1-.553-.372,14.3,14.3,0,0,1,2.027-14.248.6.6,0,0,1,.838-.1l9.774,7.723V269.678a.6.6,0,0,1,.6-.6A14.329,14.329,0,0,1,342.1,279.538a.6.6,0,1,1-1.15.319,13.134,13.134,0,0,0-12.024-9.57v13.085a.6.6,0,0,1-.966.469l-10.265-8.109a13.106,13.106,0,0,0-1.5,12.582.6.6,0,0,1-.328.777A.586.586,0,0,1,315.642,289.135Z" transform="translate(-312.168 -267.884)" fill="#2a2a2a"/>
  <path id="Path_26" data-name="Path 26" d="M329.609,302.479a14.209,14.209,0,0,1-10-4.086.6.6,0,1,1,.838-.852A13.1,13.1,0,0,0,342.6,289.86a.6.6,0,0,1,1.184.153A14.31,14.31,0,0,1,329.609,302.479Z" transform="translate(-313.45 -272.702)" fill="#2a2a2a"/>
  <g id="Group_14" data-name="Group 14" transform="translate(31.092)">
    <path id="Path_27" data-name="Path 27" d="M352.776,276.438a.4.4,0,0,1-.4-.4v-8.131a.4.4,0,0,1,.8,0v8.13a.4.4,0,0,1-.4.4Z" transform="translate(-352.378 -267.511)" fill="#2a2a2a"/>
  </g>
  <g id="Group_15" data-name="Group 15" transform="translate(29.498 0.901)">
    <path id="Path_28" data-name="Path 28" d="M352.05,275.814a3.465,3.465,0,0,1-1.1-.185.4.4,0,1,1,.254-.755c.952.322,1.968.066,2.219-.557a.878.878,0,0,0-.04-.7,2.058,2.058,0,0,0-1.229-.991,2.82,2.82,0,0,1-1.7-1.409,1.667,1.667,0,0,1-.056-1.328,2.5,2.5,0,0,1,3.211-1.015.4.4,0,0,1-.255.755c-.952-.322-1.968-.066-2.218.556a.88.88,0,0,0,.04.7,2.058,2.058,0,0,0,1.229.991,2.82,2.82,0,0,1,1.7,1.409,1.663,1.663,0,0,1,.055,1.328A2.166,2.166,0,0,1,352.05,275.814Z" transform="translate(-350.287 -268.694)" fill="#2a2a2a"/>
  </g>
  <g id="Group_16" data-name="Group 16" transform="translate(33.973 14.888)">
    <path id="Path_29" data-name="Path 29" d="M356.755,299.206a.6.6,0,0,1-.6-.6V287.641a.6.6,0,1,1,1.194,0V298.61a.6.6,0,0,1-.6.6Z" transform="translate(-356.158 -287.044)" fill="#2a2a2a"/>
  </g>
  <g id="Group_17" data-name="Group 17" transform="translate(31.822 16.11)">
    <path id="Path_30" data-name="Path 30" d="M355.773,298.367a4.706,4.706,0,0,1-1.5-.252.6.6,0,0,1,.381-1.131c1.255.422,2.591.095,2.918-.717a1.121,1.121,0,0,0-.053-.893,2.712,2.712,0,0,0-1.623-1.3,3.865,3.865,0,0,1-2.326-1.932,2.307,2.307,0,0,1-.076-1.838c.573-1.427,2.509-2.043,4.407-1.4a.6.6,0,0,1-.381,1.132c-1.255-.423-2.591-.1-2.918.716a1.122,1.122,0,0,0,.053.894,2.712,2.712,0,0,0,1.623,1.3,3.861,3.861,0,0,1,2.326,1.932,2.308,2.308,0,0,1,.076,1.838A2.985,2.985,0,0,1,355.773,298.367Z" transform="translate(-353.336 -288.647)" fill="#2a2a2a"/>
  </g>
  <g id="Group_18" data-name="Group 18" transform="translate(31.474 30.778)">
    <rect id="Rectangle_3" data-name="Rectangle 3" width="2.388" height="6.796" transform="translate(0 0)" fill="#2a2a2a"/>
  </g>
  <g id="Group_19" data-name="Group 19" transform="translate(27.859 28.788)">
    <rect id="Rectangle_4" data-name="Rectangle 4" width="2.388" height="8.787" transform="translate(0)" fill="#2a2a2a"/>
  </g>
  <g id="Group_20" data-name="Group 20" transform="translate(24.244 28.788)">
    <rect id="Rectangle_5" data-name="Rectangle 5" width="2.388" height="8.787" transform="translate(0)" fill="#2a2a2a"/>
  </g>
  <g id="Group_21" data-name="Group 21" transform="translate(20.63 32.37)">
    <rect id="Rectangle_6" data-name="Rectangle 6" width="2.388" height="5.205" transform="translate(0)" fill="#2a2a2a"/>
  </g>
  <g id="Group_22" data-name="Group 22" transform="translate(17.016 31.176)">
    <rect id="Rectangle_7" data-name="Rectangle 7" width="2.388" height="6.399" transform="translate(0 0)" fill="#2a2a2a"/>
  </g>
  <g id="Group_23" data-name="Group 23" transform="translate(13.401 32.768)">
    <rect id="Rectangle_8" data-name="Rectangle 8" width="2.388" height="4.806" transform="translate(0 0)" fill="#2a2a2a"/>
  </g>
  <g id="Group_24" data-name="Group 24" transform="translate(9.786 35.155)">
    <rect id="Rectangle_9" data-name="Rectangle 9" width="2.388" height="2.419" fill="#2a2a2a"/>
  </g>
  <g id="Group_25" data-name="Group 25" transform="translate(6.171 33.962)">
    <rect id="Rectangle_10" data-name="Rectangle 10" width="2.388" height="3.613" transform="translate(0 0)" fill="#2a2a2a"/>
  </g>
</svg>
