<svg id="dashboardblue" xmlns="http://www.w3.org/2000/svg" width="29.071" height="28.425" viewBox="0 0 29.071 28.425">
  <path id="Path_21" data-name="Path 21" d="M311.716,292.088h0a.451.451,0,0,1,0-.639l6.1-6.029a.452.452,0,0,1,.582-.045l2.756,2a.452.452,0,0,0,.6-.067l7.7-8.741a.451.451,0,0,1,.628-.048l3.822,3.189a.452.452,0,0,0,.609-.028l5.132-5.132a.451.451,0,0,1,.638,0h0a.452.452,0,0,1,0,.639L334.57,282.9a.452.452,0,0,1-.608.027l-3.781-3.153a.451.451,0,0,0-.628.048l-7.661,8.7a.452.452,0,0,1-.6.068l-2.8-2.027a.45.45,0,0,0-.582.045l-5.552,5.491A.451.451,0,0,1,311.716,292.088Z" transform="translate(-311.585 -271.279)" fill="#033792"/>
  <path id="Path_22" data-name="Path 22" d="M326.819,269.864a10.336,10.336,0,0,0-8.127,3.939l8.127,6.42Z" transform="translate(-314.594 -268.507)" fill="#033792"/>
  <path id="Path_23" data-name="Path 23" d="M358.481,279.082a.453.453,0,0,1-.419-.622l.461-1.132-1.211.415a.452.452,0,1,1-.293-.854l2.146-.736a.451.451,0,0,1,.565.6l-.832,2.05A.453.453,0,0,1,358.481,279.082Z" transform="translate(-330.693 -271.16)" fill="#033792"/>
  <path id="Path_24" data-name="Path 24" d="M326.485,280.343a.451.451,0,0,1-.28-.1l-8.13-6.42a.452.452,0,0,1-.074-.634,10.756,10.756,0,0,1,8.481-4.11.451.451,0,0,1,.452.451v10.359a.451.451,0,0,1-.452.451ZM319,273.4l7.034,5.556v-8.965A9.844,9.844,0,0,0,319,273.4Z" transform="translate(-314.26 -268.176)" fill="#033792"/>
  <path id="Path_25" data-name="Path 25" d="M315.251,284.252a.452.452,0,0,1-.419-.281,10.819,10.819,0,0,1,1.534-10.779.452.452,0,0,1,.634-.074l7.394,5.842v-9.427a.451.451,0,0,1,.451-.452,10.84,10.84,0,0,1,10.419,7.91.451.451,0,1,1-.87.242,9.936,9.936,0,0,0-9.1-7.24v9.9a.451.451,0,0,1-.731.355l-7.765-6.134a9.915,9.915,0,0,0-1.134,9.518.451.451,0,0,1-.248.588A.444.444,0,0,1,315.251,284.252Z" transform="translate(-312.623 -268.176)" fill="#033792"/>
  <path id="Path_26" data-name="Path 26" d="M327.129,299.28a10.749,10.749,0,0,1-7.568-3.091.452.452,0,1,1,.634-.645,9.909,9.909,0,0,0,16.764-5.81.452.452,0,0,1,.9.115A10.826,10.826,0,0,1,327.129,299.28Z" transform="translate(-314.905 -276.753)" fill="#033792"/>
  <g id="Group_14" data-name="Group 14" transform="translate(23.521)">
    <path id="Path_27" data-name="Path 27" d="M352.679,274.264a.3.3,0,0,1-.3-.3v-6.151a.3.3,0,0,1,.6,0v6.151a.3.3,0,0,1-.3.3Z" transform="translate(-352.378 -267.511)" fill="#033792"/>
  </g>
  <g id="Group_15" data-name="Group 15" transform="translate(22.315 0.682)">
    <path id="Path_28" data-name="Path 28" d="M351.62,274.08a2.621,2.621,0,0,1-.833-.14.3.3,0,1,1,.192-.571c.72.243,1.489.05,1.679-.422a.664.664,0,0,0-.031-.528,1.557,1.557,0,0,0-.93-.75,2.133,2.133,0,0,1-1.285-1.066,1.261,1.261,0,0,1-.042-1,1.89,1.89,0,0,1,2.429-.767.3.3,0,0,1-.193.571c-.72-.244-1.489-.05-1.678.421a.666.666,0,0,0,.03.528,1.557,1.557,0,0,0,.93.75,2.133,2.133,0,0,1,1.285,1.066,1.258,1.258,0,0,1,.041,1A1.639,1.639,0,0,1,351.62,274.08Z" transform="translate(-350.287 -268.694)" fill="#033792"/>
  </g>
  <g id="Group_16" data-name="Group 16" transform="translate(25.701 11.263)">
    <path id="Path_29" data-name="Path 29" d="M356.609,296.244a.452.452,0,0,1-.451-.451v-8.3a.451.451,0,1,1,.9,0v8.3a.452.452,0,0,1-.452.451Z" transform="translate(-356.158 -287.044)" fill="#033792"/>
  </g>
  <g id="Group_17" data-name="Group 17" transform="translate(24.073 12.187)">
    <path id="Path_30" data-name="Path 30" d="M355.18,296a3.561,3.561,0,0,1-1.138-.191.452.452,0,0,1,.288-.856c.95.32,1.96.072,2.207-.542a.848.848,0,0,0-.04-.676,2.052,2.052,0,0,0-1.228-.984,2.924,2.924,0,0,1-1.76-1.462,1.746,1.746,0,0,1-.058-1.39,2.594,2.594,0,0,1,3.334-1.062.452.452,0,0,1-.288.856c-.95-.32-1.96-.072-2.207.542a.849.849,0,0,0,.04.676,2.051,2.051,0,0,0,1.228.984,2.921,2.921,0,0,1,1.76,1.461,1.746,1.746,0,0,1,.058,1.391A2.259,2.259,0,0,1,355.18,296Z" transform="translate(-353.336 -288.647)" fill="#033792"/>
  </g>
  <g id="Group_18" data-name="Group 18" transform="translate(23.81 23.284)">
    <rect id="Rectangle_3" data-name="Rectangle 3" width="1.806" height="5.142" transform="translate(0 0)" fill="#033792"/>
  </g>
  <g id="Group_19" data-name="Group 19" transform="translate(21.075 21.778)">
    <rect id="Rectangle_4" data-name="Rectangle 4" width="1.806" height="6.647" transform="translate(0)" fill="#033792"/>
  </g>
  <g id="Group_20" data-name="Group 20" transform="translate(18.341 21.778)">
    <rect id="Rectangle_5" data-name="Rectangle 5" width="1.806" height="6.647" transform="translate(0)" fill="#033792"/>
  </g>
  <g id="Group_21" data-name="Group 21" transform="translate(15.607 24.488)">
    <rect id="Rectangle_6" data-name="Rectangle 6" width="1.806" height="3.938" transform="translate(0)" fill="#033792"/>
  </g>
  <g id="Group_22" data-name="Group 22" transform="translate(12.872 23.585)">
    <rect id="Rectangle_7" data-name="Rectangle 7" width="1.806" height="4.841" transform="translate(0 0)" fill="#033792"/>
  </g>
  <g id="Group_23" data-name="Group 23" transform="translate(10.138 24.789)">
    <rect id="Rectangle_8" data-name="Rectangle 8" width="1.806" height="3.636" transform="translate(0 0)" fill="#033792"/>
  </g>
  <g id="Group_24" data-name="Group 24" transform="translate(7.403 26.595)">
    <rect id="Rectangle_9" data-name="Rectangle 9" width="1.806" height="1.83" fill="#033792"/>
  </g>
  <g id="Group_25" data-name="Group 25" transform="translate(4.669 25.692)">
    <rect id="Rectangle_10" data-name="Rectangle 10" width="1.806" height="2.733" transform="translate(0 0)" fill="#033792"/>
  </g>
</svg>
