<svg xmlns="http://www.w3.org/2000/svg" width="324" height="195" fill="none" viewBox="0 0 324 195">
    <g filter="url(#a-qq)">
        <path fill="#fff" d="M37.1 54.036v89.761c0 .713.58 1.248 1.248 1.248h151.309c.713 0 1.248-.58 1.248-1.248V54.036H37.1z"/>
        <path fill="#B85656" d="M190.95 55.24V39.996c0-4.323-3.521-7.844-7.844-7.844H44.944c-4.323 0-7.844 3.52-7.844 7.844v15.242h153.85z"/>
        <path fill="#fff" d="M128.378 49.267H52.924a5.573 5.573 0 0 1-5.571-5.571 5.573 5.573 0 0 1 5.571-5.571h75.454a5.573 5.573 0 0 1 5.571 5.571 5.573 5.573 0 0 1-5.571 5.571z"/>
        <path fill="#324A5E" d="M57.382 41.95h-.907l-.528 1.958-.613-1.97h-.787l-.607 1.964-.517-1.953h-.925l.992 3.244h.816l.631-1.976.62 1.976h.822l1.003-3.244zm5.025 0H61.5l-.53 1.958-.612-1.97h-.787l-.607 1.964-.516-1.953h-.925l.99 3.244h.818l.63-1.976.62 1.976h.822l1.004-3.244zm5.024 0h-.907l-.529 1.958-.613-1.97h-.787l-.606 1.964-.517-1.953h-.925l.991 3.244h.817l.631-1.976.619 1.976h.823l1.003-3.244zm1.342 3.22v-.962h-.974v.961h.974zm4.014-1.605v-.012a1.85 1.85 0 0 0-.127-.709 1.525 1.525 0 0 0-.324-.522 1.335 1.335 0 0 0-.468-.325 1.431 1.431 0 0 0-.547-.108c-.24 0-.44.05-.601.15-.156.096-.29.22-.403.373v-.463h-.913v4.181h.913V44.75c.109.128.24.24.397.336.16.096.362.144.607.144.192 0 .376-.036.553-.108.176-.072.33-.178.462-.318.136-.144.244-.319.325-.523.084-.208.126-.446.126-.715zm-.913 0a.965.965 0 0 1-.067.367.868.868 0 0 1-.168.282.745.745 0 0 1-.553.24.787.787 0 0 1-.306-.06.83.83 0 0 1-.246-.18 1.032 1.032 0 0 1-.168-.282 1.08 1.08 0 0 1-.06-.367v-.012a.925.925 0 0 1 .228-.643.712.712 0 0 1 .246-.18.726.726 0 0 1 .607 0 .791.791 0 0 1 .42.463.948.948 0 0 1 .067.36v.012zm4.498-1.616h-.95l-.702 2.193-.733-2.193h-.967l1.261 3.232a.375.375 0 0 1-.132.163.312.312 0 0 1-.186.048.63.63 0 0 1-.198-.037 1.046 1.046 0 0 1-.192-.09l-.307.661a1.495 1.495 0 0 0 .811.222c.136 0 .256-.015.36-.047a.728.728 0 0 0 .277-.157 1.1 1.1 0 0 0 .228-.282 2.37 2.37 0 0 0 .192-.415l1.238-3.298zm1.343 3.22v-4.385h-.913v4.385h.913zm1.663 0v-4.385h-.913v4.385h.913zm3.068-.979v-.012a.745.745 0 0 0-.09-.378.905.905 0 0 0-.228-.265 1.326 1.326 0 0 0-.312-.18 3.322 3.322 0 0 0-.343-.132 8.979 8.979 0 0 1-.252-.084 2.626 2.626 0 0 1-.204-.084.748.748 0 0 1-.144-.096.166.166 0 0 1-.055-.12v-.013c0-.064.028-.116.085-.156.056-.044.14-.066.252-.066.116 0 .25.028.402.084.153.052.309.124.469.216l.348-.63a2.219 2.219 0 0 0-.582-.27 1.982 1.982 0 0 0-.62-.103c-.163 0-.318.022-.462.066-.14.044-.264.11-.372.199a1.01 1.01 0 0 0-.252.324.982.982 0 0 0-.09.432v.013c0 .156.027.288.083.396.06.108.137.2.229.276.092.072.194.133.306.18.116.045.23.083.343.115l.252.078c.08.024.15.05.21.078a.416.416 0 0 1 .15.09.173.173 0 0 1 .054.126v.012c0 .072-.032.13-.096.174-.06.044-.156.066-.288.066-.152 0-.317-.032-.493-.096a2.2 2.2 0 0 1-.522-.288l-.39.6c.215.169.442.293.678.373.24.076.475.114.703.114.172 0 .332-.02.48-.06.153-.044.285-.108.397-.192a.836.836 0 0 0 .258-.318c.064-.133.096-.289.096-.469zm1.442.98v-.962h-.973v.961h.973zm3.467-.517l-.535-.541a1.748 1.748 0 0 1-.342.252.828.828 0 0 1-.396.09.827.827 0 0 1-.337-.066.823.823 0 0 1-.426-.474 1.096 1.096 0 0 1-.055-.349v-.012a.931.931 0 0 1 .216-.619.787.787 0 0 1 .247-.186.703.703 0 0 1 .319-.072c.164 0 .3.032.408.096.112.064.22.15.325.259l.558-.601a1.7 1.7 0 0 0-.529-.397c-.2-.096-.452-.144-.757-.144a1.74 1.74 0 0 0-.684.132 1.63 1.63 0 0 0-.877.895c-.085.205-.127.421-.127.65v.011a1.686 1.686 0 0 0 .475 1.178 1.679 1.679 0 0 0 1.202.486c.32 0 .58-.054.78-.162.2-.112.379-.254.535-.426zm3.775-1.088v-.012c0-.232-.044-.448-.132-.649a1.585 1.585 0 0 0-.367-.528 1.593 1.593 0 0 0-.547-.355 1.785 1.785 0 0 0-.69-.132 1.8 1.8 0 0 0-.697.132 1.737 1.737 0 0 0-.553.36 1.652 1.652 0 0 0-.499 1.184v.012a1.634 1.634 0 0 0 .493 1.184c.156.148.34.266.553.354.212.084.442.126.69.126a1.8 1.8 0 0 0 .697-.132c.213-.088.397-.208.553-.36a1.636 1.636 0 0 0 .499-1.184zm-.901.012c0 .12-.02.235-.06.343a.8.8 0 0 1-.427.468.857.857 0 0 1-.349.066.82.82 0 0 1-.787-.546.979.979 0 0 1-.06-.343v-.012c0-.12.018-.232.054-.336a.867.867 0 0 1 .169-.282.75.75 0 0 1 .258-.187.838.838 0 0 1 .355-.072.808.808 0 0 1 .612.27c.076.08.134.175.174.283a.93.93 0 0 1 .06.336v.012zm6.326 1.592v-2.096c0-.389-.096-.683-.288-.883-.193-.2-.459-.3-.8-.3-.22 0-.416.043-.588.131-.172.084-.329.21-.469.379a.89.89 0 0 0-.36-.379 1.073 1.073 0 0 0-.547-.132 1.034 1.034 0 0 0-.57.156 1.214 1.214 0 0 0-.21.169c-.061.06-.117.124-.17.192v-.457h-.912v3.22h.913v-1.796c0-.216.048-.378.144-.487a.52.52 0 0 1 .409-.168c.172 0 .304.056.396.168.092.108.138.27.138.487v1.796h.913v-1.796c0-.216.049-.378.145-.487a.52.52 0 0 1 .408-.168c.172 0 .305.056.397.168.092.108.138.27.138.487v1.796h.913z"/>
    </g>
    <circle cx="125.51" cy="43.505" r="4.472" fill="#ED4756"/>
    <path fill="#B85656" fill-opacity=".28" d="M221.449 165.478l-95.32-118.096 162.806 41.557-67.486 76.539z"/>
    <circle cx="269.328" cy="139.611" r="53.315" fill="#fff" stroke="#4F5967" stroke-width="2.713"/>
    <mask id="b-qq" width="105" height="104" x="217" y="88" maskUnits="userSpaceOnUse">
        <circle cx="269.183" cy="139.965" r="50.499" fill="#fff" stroke="#387C8B" stroke-width="2.699"/>
    </mask>
    <g mask="url(#b-qq)">
        <path fill="#DEE1E6" d="M221.451 86.47h96.29v21.398h-96.29z"/>
        <path fill="#4F5967" d="M221.451 167.947h94.644v28.805h-94.644z"/>
        <path fill="#E8EAED" d="M216.513 115.275h107.812v45.265H216.513z"/>
    </g>
    <path fill="#4F5967" d="M258.502 146.827h19.804a2.483 2.483 0 0 0 2.486-2.486v-11.766a2.483 2.483 0 0 0-2.486-2.486h-19.804a2.482 2.482 0 0 0-2.486 2.486v11.766a2.482 2.482 0 0 0 2.486 2.486zM282.448 140.985l7.375 4.765v-14.584l-7.375 4.765v5.054z"/>
    <rect width="12.345" height="11.169" x="274.944" y="140.788" fill="#E8EAED" rx="5.578"/>
    <path fill="#ED4756" d="M286.065 140.368a6.995 6.995 0 1 0-9.894 9.891 6.995 6.995 0 0 0 9.894-9.891zm-2.236 8.503a.31.31 0 0 1-.438 0l-2.01-2.01a.314.314 0 0 0-.439 0l-2.143 2.144a.311.311 0 0 1-.439 0l-.932-.933a.31.31 0 0 1 0-.438l2.143-2.144a.31.31 0 0 0 0-.438l-2.01-2.01a.314.314 0 0 1 0-.439l.871-.87a.31.31 0 0 1 .438 0l2.01 2.01a.311.311 0 0 0 .439 0l2.119-2.119a.31.31 0 0 1 .438 0l.933.933a.31.31 0 0 1 0 .438l-2.119 2.117a.31.31 0 0 0 0 .439l2.004 2.011a.314.314 0 0 1 0 .439l-.865.87z"/>
    <defs>
        <filter id="a-qq" width="228.049" height="187.091" x="0" y="0" color-interpolation-filters="sRGB" filterUnits="userSpaceOnUse">
            <feFlood flood-opacity="0" result="BackgroundImageFix"/>
            <feColorMatrix in="SourceAlpha" values="0 0 0 0 0 0 0 0 0 0 0 0 0 0 0 0 0 0 127 0"/>
            <feOffset dy="4.94"/>
            <feGaussianBlur stdDeviation="18.526"/>
            <feColorMatrix values="0 0 0 0 0 0 0 0 0 0 0 0 0 0 0 0 0 0 0.1 0"/>
            <feBlend in2="BackgroundImageFix" result="effect1_dropShadow"/>
            <feBlend in="SourceGraphic" in2="effect1_dropShadow" result="shape"/>
        </filter>
    </defs>
</svg>
