<svg id="inventory-white" xmlns="http://www.w3.org/2000/svg" width="38.384" height="41.313" viewBox="0 0 38.384 41.313">
  <g id="Group_2" data-name="Group 2" transform="translate(5.97 20.749)">
    <path id="Path_4" data-name="Path 4" d="M482.074,305.467h-21.13a.748.748,0,0,1-.714-.515l-4.392-13.47a.748.748,0,0,1,.714-.982h30.915a.747.747,0,0,1,.694,1.025L482.768,305a.747.747,0,0,1-.694.47Zm-20.588-1.495h20.082l4.791-11.977H457.577Z" transform="translate(-455.799 -290.5)" fill="#fff"/>
  </g>
  <g id="Group_3" data-name="Group 3" transform="translate(11.322 24.736)">
    <path id="Path_5" data-name="Path 5" d="M483.2,296.46h-20.66a.747.747,0,0,1,0-1.495H483.2a.747.747,0,1,1,0,1.495Z" transform="translate(-461.792 -294.965)" fill="#fff"/>
  </g>
  <g id="Group_4" data-name="Group 4" transform="translate(12.362 29.64)">
    <path id="Path_6" data-name="Path 6" d="M481.54,301.952H463.7a.747.747,0,1,1,0-1.495H481.54a.747.747,0,1,1,0,1.495Z" transform="translate(-462.957 -300.457)" fill="#fff"/>
  </g>
  <g id="Group_5" data-name="Group 5" transform="translate(0 16.712)">
    <path id="Path_7" data-name="Path 7" d="M457,291.187a.744.744,0,0,1-.541-.231l-2.9-3.036a1.439,1.439,0,0,0-1.041-.446h-2.632a.747.747,0,1,1,0-1.494h3.27a1.439,1.439,0,0,1,1.042.447l3.3,3.465a.783.783,0,0,1,.061,1.04A.747.747,0,0,1,457,291.187Z" transform="translate(-449.113 -285.978)" fill="#fff"/>
  </g>
  <g id="Group_6" data-name="Group 6" transform="translate(11.619 34.392)">
    <path id="Path_8" data-name="Path 8" d="M479.816,311.439H463.329l-1.182-4.733a.747.747,0,0,1,1.45-.363l.9,3.6h15.32a.747.747,0,0,1,0,1.495Z" transform="translate(-462.125 -305.778)" fill="#fff"/>
  </g>
  <g id="Group_7" data-name="Group 7" transform="translate(11.103 37.299)">
    <path id="Path_9" data-name="Path 9" d="M465.56,311.041a2.007,2.007,0,1,1-2.006-2.007A2.007,2.007,0,0,1,465.56,311.041Z" transform="translate(-461.547 -309.034)" fill="#fff"/>
  </g>
  <g id="Group_8" data-name="Group 8" transform="translate(27.303 37.299)">
    <path id="Path_10" data-name="Path 10" d="M483.7,311.041a2.007,2.007,0,1,1-2.007-2.007A2.007,2.007,0,0,1,483.7,311.041Z" transform="translate(-479.689 -309.034)" fill="#fff"/>
  </g>
  <path id="Path_11" data-name="Path 11" d="M479.61,288.045a2.447,2.447,0,0,1-1.735-.714h0l-2.674-2.673a2.453,2.453,0,0,1,0-3.47l2.674-2.674a2.457,2.457,0,0,1,3.47,0l2.673,2.674a2.457,2.457,0,0,1,0,3.47l-2.674,2.673A2.446,2.446,0,0,1,479.61,288.045Zm-.679-1.774a.96.96,0,0,0,1.356,0l2.674-2.679a.961.961,0,0,0,0-1.355l-2.674-2.674a.961.961,0,0,0-1.356,0l-2.674,2.674a.959.959,0,0,0,0,1.356Z" transform="translate(-451.828 -268.391)" fill="#fff"/>
  <path id="Path_12" data-name="Path 12" d="M486.863,279.452a1.637,1.637,0,0,1-1.166-.483h0l-2.22-2.22a1.65,1.65,0,0,1,0-2.332l2.22-2.22a1.689,1.689,0,0,1,2.332,0l2.22,2.22a1.649,1.649,0,0,1,0,2.332l-2.221,2.22A1.635,1.635,0,0,1,486.863,279.452Zm-.11-1.539a.135.135,0,0,0,.218,0l2.221-2.221a.151.151,0,0,0,.046-.109.153.153,0,0,0-.046-.11l-2.22-2.22a.135.135,0,0,0-.219,0l-2.22,2.22a.153.153,0,0,0-.045.11.151.151,0,0,0,.045.109Z" transform="translate(-452.739 -267.742)" fill="#fff"/>
  <path id="Path_13" data-name="Path 13" d="M474.768,278.237a.992.992,0,0,1-.705-.293l-2.22-2.22a1,1,0,0,1,0-1.409l2.222-2.221a1.021,1.021,0,0,1,1.41,0l2.22,2.22a1,1,0,0,1,0,1.409l-2.221,2.221A.99.99,0,0,1,474.768,278.237Zm.357-1.348Zm-1.869-1.869,1.518,1.518,1.518-1.518-1.518-1.518Z" transform="translate(-451.515 -267.751)" fill="#fff"/>
  <path id="Path_14" data-name="Path 14" d="M462.465,286.555a.747.747,0,0,1-.747-.747v-17.8a.746.746,0,0,1,.747-.747h15.779a.746.746,0,0,1,.747.747v3.732a.747.747,0,1,1-1.495,0v-2.984H463.209v17.05a.747.747,0,0,1-.744.747Z" transform="translate(-450.462 -267.264)" fill="#fff"/>
  <path id="Path_15" data-name="Path 15" d="M467.016,274.413a.5.5,0,0,1-.352-.146l-1.039-1.038a.5.5,0,1,1,.7-.7l.687.687,2.585-2.585a.5.5,0,1,1,.7.7l-2.937,2.937A.5.5,0,0,1,467.016,274.413Z" transform="translate(-450.865 -267.608)" fill="#fff"/>
  <path id="Path_16" data-name="Path 16" d="M467.016,280.884a.5.5,0,0,1-.352-.146l-1.039-1.039a.5.5,0,1,1,.7-.7l.687.688L469.6,277.1a.5.5,0,1,1,.7.7l-2.937,2.937A.5.5,0,0,1,467.016,280.884Z" transform="translate(-450.865 -268.301)" fill="#fff"/>
  <path id="Path_17" data-name="Path 17" d="M467.016,287.355a.5.5,0,0,1-.352-.146l-1.039-1.039a.5.5,0,1,1,.7-.7l.687.687,2.585-2.584a.5.5,0,1,1,.7.7l-2.937,2.937A.5.5,0,0,1,467.016,287.355Z" transform="translate(-450.865 -268.993)" fill="#fff"/>
</svg>
