<svg xmlns="http://www.w3.org/2000/svg" width="25.468" height="27.411" viewBox="0 0 25.468 27.411">
  <g id="inventoryblue" transform="translate(0 0)">
    <g id="Group_2" data-name="Group 2" transform="translate(3.961 13.767)">
      <path id="Path_4" data-name="Path 4" d="M473.232,300.431h-14.02a.5.5,0,0,1-.474-.342l-2.914-8.937a.5.5,0,0,1,.474-.652H476.81a.5.5,0,0,1,.46.68l-3.577,8.939a.5.5,0,0,1-.46.312Zm-13.66-.992H472.9l3.179-7.947h-19.1Z" transform="translate(-455.799 -290.5)" fill="#033792"/>
    </g>
    <g id="Group_3" data-name="Group 3" transform="translate(7.512 16.413)">
      <path id="Path_5" data-name="Path 5" d="M476,295.957H462.288a.5.5,0,0,1,0-.992H476a.5.5,0,1,1,0,.992Z" transform="translate(-461.792 -294.965)" fill="#033792"/>
    </g>
    <g id="Group_4" data-name="Group 4" transform="translate(8.202 19.667)">
      <path id="Path_6" data-name="Path 6" d="M475.287,301.449H463.453a.5.5,0,1,1,0-.992h11.834a.5.5,0,1,1,0,.992Z" transform="translate(-462.957 -300.457)" fill="#033792"/>
    </g>
    <g id="Group_5" data-name="Group 5" transform="translate(0 11.088)">
      <path id="Path_7" data-name="Path 7" d="M454.347,289.434a.494.494,0,0,1-.359-.153l-1.925-2.014a.955.955,0,0,0-.691-.3h-1.746a.5.5,0,1,1,0-.991h2.17a.955.955,0,0,1,.691.3l2.192,2.3a.52.52,0,0,1,.04.69A.5.5,0,0,1,454.347,289.434Z" transform="translate(-449.113 -285.979)" fill="#033792"/>
    </g>
    <g id="Group_6" data-name="Group 6" transform="translate(7.709 22.819)">
      <path id="Path_8" data-name="Path 8" d="M473.863,309.534H462.924l-.784-3.14a.5.5,0,0,1,.962-.241l.6,2.386h10.165a.5.5,0,0,1,0,.992Z" transform="translate(-462.125 -305.778)" fill="#033792"/>
    </g>
    <g id="Group_7" data-name="Group 7" transform="translate(7.367 24.748)">
      <path id="Path_9" data-name="Path 9" d="M464.21,310.365a1.331,1.331,0,1,1-1.331-1.331A1.331,1.331,0,0,1,464.21,310.365Z" transform="translate(-461.547 -309.034)" fill="#033792"/>
    </g>
    <g id="Group_8" data-name="Group 8" transform="translate(18.116 24.748)">
      <path id="Path_10" data-name="Path 10" d="M482.352,310.365a1.331,1.331,0,1,1-1.331-1.331A1.331,1.331,0,0,1,482.352,310.365Z" transform="translate(-479.689 -309.034)" fill="#033792"/>
    </g>
    <path id="Path_11" data-name="Path 11" d="M477.885,284.6a1.624,1.624,0,0,1-1.151-.474h0l-1.774-1.774a1.628,1.628,0,0,1,0-2.3l1.774-1.774a1.63,1.63,0,0,1,2.3,0l1.774,1.774a1.631,1.631,0,0,1,0,2.3l-1.774,1.774A1.623,1.623,0,0,1,477.885,284.6Zm-.45-1.177a.637.637,0,0,0,.9,0l1.774-1.778a.637.637,0,0,0,0-.9l-1.774-1.775a.638.638,0,0,0-.9,0l-1.774,1.774a.636.636,0,0,0,0,.9Z" transform="translate(-459.452 -271.556)" fill="#033792"/>
    <path id="Path_12" data-name="Path 12" d="M485.561,276.854a1.086,1.086,0,0,1-.774-.321h0l-1.473-1.473a1.1,1.1,0,0,1,0-1.548l1.473-1.473a1.12,1.12,0,0,1,1.548,0l1.473,1.473a1.094,1.094,0,0,1,0,1.548l-1.474,1.473A1.085,1.085,0,0,1,485.561,276.854Zm-.073-1.021a.089.089,0,0,0,.145,0l1.473-1.474a.1.1,0,0,0,.03-.072.1.1,0,0,0-.03-.073l-1.473-1.473a.089.089,0,0,0-.145,0l-1.473,1.473a.1.1,0,0,0-.03.073.1.1,0,0,0,.03.072Z" transform="translate(-462.92 -269.084)" fill="#033792"/>
    <path id="Path_13" data-name="Path 13" d="M473.686,276.075a.658.658,0,0,1-.468-.194l-1.473-1.473a.662.662,0,0,1,0-.935L473.219,272a.677.677,0,0,1,.936,0l1.473,1.473a.663.663,0,0,1,0,.935l-1.473,1.474A.657.657,0,0,1,473.686,276.075Zm.237-.895Zm-1.24-1.24,1.007,1.007,1.007-1.007-1.007-1.007Z" transform="translate(-458.257 -269.117)" fill="#033792"/>
    <path id="Path_14" data-name="Path 14" d="M462.214,280.064a.5.5,0,0,1-.5-.5V267.759a.5.5,0,0,1,.5-.5h10.469a.5.5,0,0,1,.5.5v2.476a.5.5,0,1,1-.992,0v-1.98h-9.48v11.312a.5.5,0,0,1-.494.5Z" transform="translate(-454.25 -267.264)" fill="#033792"/>
    <path id="Path_15" data-name="Path 15" d="M466.5,273.09a.33.33,0,0,1-.233-.1l-.69-.689a.331.331,0,1,1,.467-.468l.456.456,1.715-1.715a.331.331,0,0,1,.468.468l-1.949,1.949A.331.331,0,0,1,466.5,273.09Z" transform="translate(-455.782 -268.574)" fill="#033792"/>
    <path id="Path_16" data-name="Path 16" d="M466.5,279.561a.33.33,0,0,1-.233-.1l-.69-.69a.331.331,0,1,1,.467-.467l.456.456,1.715-1.715a.331.331,0,1,1,.468.467l-1.949,1.949A.33.33,0,0,1,466.5,279.561Z" transform="translate(-455.782 -271.211)" fill="#033792"/>
    <path id="Path_17" data-name="Path 17" d="M466.5,286.031a.329.329,0,0,1-.233-.1l-.69-.69a.331.331,0,1,1,.467-.467l.456.456,1.715-1.715a.331.331,0,1,1,.468.467l-1.949,1.949A.329.329,0,0,1,466.5,286.031Z" transform="translate(-455.782 -273.848)" fill="#033792"/>
  </g>
</svg>
