<svg xmlns="http://www.w3.org/2000/svg" width="30.372" height="35.813" viewBox="0 0 30.372 35.813">
  <g id="labcase-white-2" transform="translate(0 0.5)">
    <path id="Path_31" data-name="Path 31" d="M714.635,274.834v25.934a1.256,1.256,0,0,0,1.256,1.256H736.6a1.257,1.257,0,0,0,1.257-1.256V274.834a1.257,1.257,0,0,0-1.257-1.256H715.891a1.256,1.256,0,0,0-1.256,1.256Zm19.286,23.911h-15.35a1.256,1.256,0,0,1-1.257-1.256V280.184a1.257,1.257,0,0,1,1.257-1.257h15.35a1.256,1.256,0,0,1,1.256,1.257v17.3a1.256,1.256,0,0,1-1.256,1.261Z" transform="translate(-714.635 -270.822)" fill="#fff"/>
    <g id="Group_29" data-name="Group 29" transform="translate(5.633)">
      <g id="Group_28" data-name="Group 28">
        <path id="Path_32" data-name="Path 32" d="M732.635,272.337h-2.776a.264.264,0,0,1-.263-.263V270.25a.264.264,0,0,0-.263-.264h-2.067a.264.264,0,0,0-.264.264v1.824a.263.263,0,0,1-.263.263h-3.424a1.337,1.337,0,0,0-1.337,1.337h0a1.337,1.337,0,0,0,1.337,1.337h9.321a1.337,1.337,0,0,0,1.337-1.337h0a1.337,1.337,0,0,0-1.338-1.337Z" transform="translate(-721.977 -269.986)" stroke="#f5f5f5" stroke-width="1"/>
        <path id="Path_33" data-name="Path 33" d="M732.635,272.337h-2.776a.264.264,0,0,1-.263-.263V270.25a.264.264,0,0,0-.263-.264h-2.067a.264.264,0,0,0-.264.264v1.824a.263.263,0,0,1-.263.263h-3.424a1.337,1.337,0,0,0-1.337,1.337h0a1.337,1.337,0,0,0,1.337,1.337h9.321a1.337,1.337,0,0,0,1.337-1.337h0a1.337,1.337,0,0,0-1.338-1.337Z" transform="translate(-721.977 -269.986)" fill="#fff"/>
      </g>
    </g>
    <path id="Path_34" data-name="Path 34" d="M749.462,304.485a6.768,6.768,0,1,1-6.768-6.768A6.768,6.768,0,0,1,749.462,304.485Z" transform="translate(-719.59 -276.44)" fill="#fff" stroke="#f5f5f5" stroke-width="1"/>
    <path id="Path_35" data-name="Path 35" d="M724.525,283.467l-.209-.21a.313.313,0,0,0-.44,0l-2.279,2.28-1.2-1.2a.263.263,0,0,0-.372,0l-.281.281a.263.263,0,0,0,0,.372l1.667,1.668a.263.263,0,0,0,.372,0l.281-.281h0l2.467-2.467a.311.311,0,0,0-.006-.443Z" transform="translate(-715.805 -273.054)" fill="#fff"/>
    <rect id="Rectangle_15" data-name="Rectangle 15" width="9.483" height="1.783" rx="0.767" transform="translate(10.043 11.003)" fill="#fff"/>
    <path id="Path_36" data-name="Path 36" d="M724.525,289.33l-.209-.209a.312.312,0,0,0-.44,0L721.6,291.4l-1.2-1.2a.263.263,0,0,0-.372,0l-.281.281a.264.264,0,0,0,0,.372l1.667,1.668a.263.263,0,0,0,.372,0l.281-.281h0l2.467-2.467a.312.312,0,0,0,0-.44Z" transform="translate(-715.805 -274.418)" fill="#fff"/>
    <rect id="Rectangle_16" data-name="Rectangle 16" width="8.725" height="1.783" rx="0.767" transform="translate(10.043 15.502)" fill="#fff"/>
    <path id="Path_37" data-name="Path 37" d="M724.525,295.193l-.209-.209a.312.312,0,0,0-.44,0l-2.279,2.28-1.2-1.2a.263.263,0,0,0-.372,0l-.281.281a.264.264,0,0,0,0,.372l1.667,1.668a.263.263,0,0,0,.372,0l.281-.281h0l2.467-2.467a.311.311,0,0,0-.006-.444Z" transform="translate(-715.805 -275.783)" fill="#fff"/>
    <rect id="Rectangle_17" data-name="Rectangle 17" width="7.935" height="1.783" rx="0.741" transform="translate(10.043 20)" fill="#fff"/>
    <path id="Path_38" data-name="Path 38" d="M724.525,301.056l-.209-.21a.312.312,0,0,0-.44,0l-2.279,2.28-1.2-1.2a.263.263,0,0,0-.372,0l-.281.281a.263.263,0,0,0,0,.372l1.667,1.668a.263.263,0,0,0,.372,0l.281-.281h0l2.467-2.467a.311.311,0,0,0-.006-.443Z" transform="translate(-715.805 -277.147)" fill="#fff"/>
    <rect id="Rectangle_18" data-name="Rectangle 18" width="5.957" height="1.783" rx="0.767" transform="translate(10.043 24.499)" fill="#fff"/>
    <g id="Group_30" data-name="Group 30" transform="translate(19.755 23.933)">
      <path id="Path_39" data-name="Path 39" d="M741.13,307.161a6.1,6.1,0,0,0-.422-2.5,5.265,5.265,0,0,1-.292-1.042,2.694,2.694,0,0,1,.255-1.64,1.374,1.374,0,0,1,1.3-.8,3.442,3.442,0,0,1,.884.132c.255.064.51.128.767.195a.832.832,0,0,0,.425-.006c.311-.077.624-.161.937-.236a2.72,2.72,0,0,1,.783-.077,1.358,1.358,0,0,1,1.172.726,2.606,2.606,0,0,1,.277.8,3.2,3.2,0,0,1-.174,1.651c-.119.355-.247.709-.348,1.069a5.7,5.7,0,0,0-.188,1.71,5.012,5.012,0,0,1-.072,1.133,3.584,3.584,0,0,1-.576,1.413,1.613,1.613,0,0,1-.383.394.672.672,0,0,1-.652.1.653.653,0,0,1-.357-.358,1.814,1.814,0,0,1-.153-.61c-.044-.466-.077-.932-.109-1.4a5.86,5.86,0,0,0-.154-1.131,1.12,1.12,0,0,0-.106-.254c-.069-.119-.176-.117-.25,0a1.138,1.138,0,0,0-.139.4,8.446,8.446,0,0,0-.132,1.228,10.206,10.206,0,0,1-.119,1.3,2.067,2.067,0,0,1-.13.46.633.633,0,0,1-.99.265,1.831,1.831,0,0,1-.532-.606,3.7,3.7,0,0,1-.493-1.584C741.141,307.63,741.138,307.358,741.13,307.161Z" transform="translate(-740.382 -301.179)" fill="#033792"/>
      <path id="Path_40" data-name="Path 40" d="M741.607,307.143a6.338,6.338,0,0,0-.456-2.532,5.012,5.012,0,0,1-.261-.91,2.333,2.333,0,0,1,.22-1.458,1.038,1.038,0,0,1,1.07-.59,5.44,5.44,0,0,1,1.056.209c.182.047.367.088.549.134a.97.97,0,0,0,.466-.036c.335-.081.67-.17,1.007-.248a2.007,2.007,0,0,1,.69-.05,1.019,1.019,0,0,1,.844.644,2.378,2.378,0,0,1,.165,1.514,7.942,7.942,0,0,1-.322,1.022,6.626,6.626,0,0,0-.364,1.659c-.021.252-.008.507-.009.76a5.3,5.3,0,0,1-.091,1.143,3.177,3.177,0,0,1-.513,1.2,1.048,1.048,0,0,1-.335.318.257.257,0,0,1-.314,0,.364.364,0,0,1-.111-.167,3.542,3.542,0,0,1-.117-.552c-.042-.423-.068-.844-.1-1.27a6.575,6.575,0,0,0-.153-1.173,1.156,1.156,0,0,0-.239-.5.468.468,0,0,0-.712,0,1.1,1.1,0,0,0-.23.46,4.619,4.619,0,0,0-.141.908c-.037.491-.066.984-.109,1.476a5.055,5.055,0,0,1-.094.551.661.661,0,0,1-.077.19.246.246,0,0,1-.329.11.824.824,0,0,1-.323-.259,2.843,2.843,0,0,1-.508-1,4.252,4.252,0,0,1-.163-1.281Zm2.326-4.086a1.8,1.8,0,0,0,.257-.025c.178-.043.357-.093.531-.154a.691.691,0,0,1,.522.023c.032.015.064.031.1.044.054.021.1,0,.131-.066a.087.087,0,0,0,.016-.071.088.088,0,0,0-.041-.059.858.858,0,0,0-.515-.139,2.043,2.043,0,0,0-.414.1,1.535,1.535,0,0,1-.763.1,3.3,3.3,0,0,1-.527-.144.91.91,0,0,0-.772.067c-.072.038-.088.082-.055.147a.1.1,0,0,0,.157.051.722.722,0,0,1,.637-.037c.028.012.059.021.088.032a1.989,1.989,0,0,0,.648.131Z" transform="translate(-740.492 -301.287)" fill="none"/>
    </g>
  </g>
</svg>
