<svg xmlns="http://www.w3.org/2000/svg" width="27.5" height="32.466" viewBox="0 0 27.5 32.466">
  <g id="labcaseblue" transform="translate(0 0.5)">
    <path id="Path_31" data-name="Path 31" d="M714.635,274.713v23.44a1.135,1.135,0,0,0,1.135,1.135h18.718a1.136,1.136,0,0,0,1.136-1.135v-23.44a1.136,1.136,0,0,0-1.136-1.135H715.77A1.135,1.135,0,0,0,714.635,274.713Zm17.432,21.612H718.193a1.135,1.135,0,0,1-1.136-1.135V279.549a1.136,1.136,0,0,1,1.136-1.136h13.874a1.135,1.135,0,0,1,1.135,1.136V295.19A1.135,1.135,0,0,1,732.067,296.326Z" transform="translate(-714.635 -271.087)" fill="#033792"/>
    <g id="Group_29" data-name="Group 29" transform="translate(5.092)">
      <g id="Group_28" data-name="Group 28">
        <path id="Path_32" data-name="Path 32" d="M731.61,272.111H729.1a.239.239,0,0,1-.238-.238v-1.648a.238.238,0,0,0-.238-.238h-1.868a.238.238,0,0,0-.238.238v1.648a.238.238,0,0,1-.238.238h-3.1a1.209,1.209,0,0,0-1.209,1.209h0a1.208,1.208,0,0,0,1.209,1.209h8.425a1.209,1.209,0,0,0,1.209-1.209h0A1.209,1.209,0,0,0,731.61,272.111Z" transform="translate(-721.977 -269.986)" stroke="#f5f5f5" stroke-width="1"/>
        <path id="Path_33" data-name="Path 33" d="M731.61,272.111H729.1a.239.239,0,0,1-.238-.238v-1.648a.238.238,0,0,0-.238-.238h-1.868a.238.238,0,0,0-.238.238v1.648a.238.238,0,0,1-.238.238h-3.1a1.209,1.209,0,0,0-1.209,1.209h0a1.208,1.208,0,0,0,1.209,1.209h8.425a1.209,1.209,0,0,0,1.209-1.209h0A1.209,1.209,0,0,0,731.61,272.111Z" transform="translate(-721.977 -269.986)" fill="#033792"/>
      </g>
    </g>
    <path id="Path_34" data-name="Path 34" d="M748.161,303.834a6.117,6.117,0,1,1-6.117-6.118A6.117,6.117,0,0,1,748.161,303.834Z" transform="translate(-721.161 -278.486)" fill="#fff" stroke="#033792" stroke-width="1"/>
    <path id="Path_35" data-name="Path 35" d="M724.057,283.438l-.189-.189a.283.283,0,0,0-.4,0l-2.06,2.061-1.089-1.089a.238.238,0,0,0-.336,0l-.254.254a.238.238,0,0,0,0,.336l1.507,1.508a.238.238,0,0,0,.336,0l.254-.254h0l2.23-2.23A.282.282,0,0,0,724.057,283.438Z" transform="translate(-716.175 -274.026)" fill="#033792"/>
    <rect id="Rectangle_15" data-name="Rectangle 15" width="8.572" height="1.612" rx="0.767" transform="translate(9.078 9.945)" fill="#033792"/>
    <path id="Path_36" data-name="Path 36" d="M724.057,289.3l-.189-.189a.282.282,0,0,0-.4,0l-2.06,2.061-1.089-1.089a.238.238,0,0,0-.336,0l-.254.254a.238.238,0,0,0,0,.336l1.507,1.508a.238.238,0,0,0,.336,0l.254-.254h0l2.23-2.23a.282.282,0,0,0,0-.4Z" transform="translate(-716.175 -275.823)" fill="#033792"/>
    <rect id="Rectangle_16" data-name="Rectangle 16" width="7.886" height="1.612" rx="0.767" transform="translate(9.078 14.011)" fill="#033792"/>
    <path id="Path_37" data-name="Path 37" d="M724.057,295.164l-.189-.189a.282.282,0,0,0-.4,0l-2.06,2.061-1.089-1.089a.238.238,0,0,0-.336,0l-.254.254a.238.238,0,0,0,0,.336l1.507,1.508a.238.238,0,0,0,.336,0l.254-.254h0l2.23-2.23A.282.282,0,0,0,724.057,295.164Z" transform="translate(-716.175 -277.62)" fill="#033792"/>
    <rect id="Rectangle_17" data-name="Rectangle 17" width="7.172" height="1.612" rx="0.741" transform="translate(9.078 18.078)" fill="#033792"/>
    <path id="Path_38" data-name="Path 38" d="M724.057,301.027l-.189-.189a.282.282,0,0,0-.4,0l-2.06,2.061-1.089-1.089a.238.238,0,0,0-.336,0l-.254.254a.238.238,0,0,0,0,.336l1.507,1.508a.238.238,0,0,0,.336,0l.254-.254h0l2.23-2.23A.282.282,0,0,0,724.057,301.027Z" transform="translate(-716.175 -279.417)" fill="#033792"/>
    <rect id="Rectangle_18" data-name="Rectangle 18" width="5.384" height="1.612" rx="0.767" transform="translate(9.078 22.143)" fill="#033792"/>
    <g id="Group_30" data-name="Group 30" transform="translate(17.855 21.632)">
      <path id="Path_39" data-name="Path 39" d="M741.058,306.585a5.516,5.516,0,0,0-.382-2.259,4.762,4.762,0,0,1-.264-.942,2.435,2.435,0,0,1,.23-1.482,1.241,1.241,0,0,1,1.179-.723,3.111,3.111,0,0,1,.8.119c.23.058.461.116.693.176a.752.752,0,0,0,.384-.006c.281-.069.564-.146.847-.213a2.458,2.458,0,0,1,.708-.069,1.228,1.228,0,0,1,1.059.656,2.356,2.356,0,0,1,.25.721,2.89,2.89,0,0,1-.157,1.492c-.108.321-.224.641-.314.967a5.143,5.143,0,0,0-.17,1.546,4.536,4.536,0,0,1-.065,1.024,3.239,3.239,0,0,1-.521,1.277,1.459,1.459,0,0,1-.346.357.607.607,0,0,1-.59.095.59.59,0,0,1-.323-.323,1.644,1.644,0,0,1-.139-.551c-.039-.421-.069-.843-.1-1.264a5.3,5.3,0,0,0-.139-1.022,1.01,1.01,0,0,0-.1-.23c-.062-.108-.159-.106-.226,0a1.027,1.027,0,0,0-.126.36,7.637,7.637,0,0,0-.119,1.11,9.224,9.224,0,0,1-.107,1.179,1.877,1.877,0,0,1-.117.416.572.572,0,0,1-.9.24,1.656,1.656,0,0,1-.481-.548,3.341,3.341,0,0,1-.446-1.432C741.068,307.01,741.066,306.764,741.058,306.585Z" transform="translate(-740.382 -301.179)" fill="#033792"/>
      <path id="Path_40" data-name="Path 40" d="M741.535,306.615a5.728,5.728,0,0,0-.412-2.289,4.536,4.536,0,0,1-.236-.822,2.109,2.109,0,0,1,.2-1.318.938.938,0,0,1,.967-.533,4.918,4.918,0,0,1,.954.189c.165.042.332.08.5.121a.877.877,0,0,0,.421-.033c.3-.073.605-.154.91-.224a1.813,1.813,0,0,1,.624-.045.921.921,0,0,1,.763.582,2.149,2.149,0,0,1,.149,1.368,7.174,7.174,0,0,1-.291.924,5.989,5.989,0,0,0-.329,1.5c-.019.227-.007.458-.008.687a4.778,4.778,0,0,1-.083,1.033,2.871,2.871,0,0,1-.464,1.084.949.949,0,0,1-.3.287.233.233,0,0,1-.284,0,.33.33,0,0,1-.1-.151,3.205,3.205,0,0,1-.105-.5c-.038-.382-.061-.763-.089-1.148a5.934,5.934,0,0,0-.139-1.06,1.043,1.043,0,0,0-.216-.452.423.423,0,0,0-.644,0,1,1,0,0,0-.208.416,4.18,4.18,0,0,0-.127.82c-.034.444-.06.889-.1,1.334a4.559,4.559,0,0,1-.085.5.6.6,0,0,1-.069.171.222.222,0,0,1-.3.1.745.745,0,0,1-.292-.234,2.569,2.569,0,0,1-.459-.906,3.846,3.846,0,0,1-.147-1.158Zm2.1-3.694a1.625,1.625,0,0,0,.232-.023c.161-.039.322-.084.48-.139a.624.624,0,0,1,.472.021c.029.013.058.028.087.04.049.019.086,0,.118-.06a.078.078,0,0,0,.015-.064.08.08,0,0,0-.037-.053.775.775,0,0,0-.465-.125,1.849,1.849,0,0,0-.375.094,1.386,1.386,0,0,1-.69.086,2.981,2.981,0,0,1-.476-.13.822.822,0,0,0-.7.06c-.065.035-.08.074-.049.133a.092.092,0,0,0,.142.046.652.652,0,0,1,.576-.033c.026.01.053.019.08.029A1.8,1.8,0,0,0,743.637,302.921Z" transform="translate(-740.527 -301.322)" fill="none"/>
    </g>
  </g>
</svg>
