<svg xmlns="http://www.w3.org/2000/svg" width="26.387" height="21.439" viewBox="0 0 26.387 21.439">
  <path id="list" d="M4.123,19.867H.825A.825.825,0,0,0,0,20.691v3.3a.825.825,0,0,0,.825.825h3.3a.825.825,0,0,0,.825-.825v-3.3A.825.825,0,0,0,4.123,19.867Zm0-16.492H.825A.825.825,0,0,0,0,4.2V7.5a.825.825,0,0,0,.825.825h3.3A.825.825,0,0,0,4.947,7.5V4.2A.825.825,0,0,0,4.123,3.375Zm0,8.246H.825A.825.825,0,0,0,0,12.445v3.3a.825.825,0,0,0,.825.825h3.3a.825.825,0,0,0,.825-.825v-3.3A.825.825,0,0,0,4.123,11.621Zm21.439,9.07H9.07a.825.825,0,0,0-.825.825v1.649a.825.825,0,0,0,.825.825H25.562a.825.825,0,0,0,.825-.825V21.516A.825.825,0,0,0,25.562,20.691Zm0-16.492H9.07a.825.825,0,0,0-.825.825V6.673A.825.825,0,0,0,9.07,7.5H25.562a.825.825,0,0,0,.825-.825V5.024A.825.825,0,0,0,25.562,4.2Zm0,8.246H9.07a.825.825,0,0,0-.825.825v1.649a.825.825,0,0,0,.825.825H25.562a.825.825,0,0,0,.825-.825V13.27A.825.825,0,0,0,25.562,12.445Z" transform="translate(0 -3.375)"/>
</svg>
