<svg 
 xmlns="http://www.w3.org/2000/svg"
 xmlns:xlink="http://www.w3.org/1999/xlink"
 width="97px" height="36px">
<path fill-rule="evenodd"  fill="rgb(69, 71, 190)"
 d="M94.575,26.823 C92.958,29.482 90.732,31.564 87.898,33.069 C85.064,34.574 81.869,35.326 78.314,35.326 C74.759,35.326 71.564,34.574 68.730,33.069 C65.896,31.564 63.669,29.482 62.052,26.823 C60.435,24.165 59.626,21.171 59.626,17.840 C59.626,14.509 60.435,11.515 62.052,8.856 C63.669,6.198 65.896,4.117 68.730,2.611 C71.564,1.106 74.759,0.353 78.314,0.353 C81.869,0.353 85.064,1.106 87.898,2.611 C90.732,4.117 92.958,6.198 94.575,8.856 C96.192,11.515 97.002,14.509 97.002,17.840 C97.002,21.171 96.192,24.165 94.575,26.823 ZM86.193,12.820 C85.392,11.363 84.302,10.234 82.926,9.433 C81.548,8.633 80.011,8.232 78.314,8.232 C76.616,8.232 75.079,8.633 73.702,9.433 C72.325,10.234 71.236,11.363 70.435,12.820 C69.634,14.277 69.234,15.951 69.234,17.840 C69.234,19.730 69.634,21.403 70.435,22.860 C71.236,24.318 72.325,25.447 73.702,26.247 C75.079,27.048 76.616,27.448 78.314,27.448 C80.011,27.448 81.548,27.048 82.926,26.247 C84.302,25.447 85.392,24.318 86.193,22.860 C86.993,21.403 87.394,19.730 87.394,17.840 C87.394,15.951 86.993,14.277 86.193,12.820 ZM48.962,34.654 L39.450,34.654 L39.450,8.568 L29.121,8.568 L29.121,1.026 L59.242,1.026 L59.242,8.568 L48.962,8.568 L48.962,34.654 ZM15.718,7.751 C13.828,7.751 12.451,8.032 11.587,8.592 C10.722,9.153 10.290,9.882 10.290,10.778 C10.290,11.675 10.802,12.348 11.827,12.796 C12.852,13.245 14.501,13.708 16.775,14.189 C19.337,14.734 21.459,15.318 23.140,15.942 C24.822,16.567 26.279,17.560 27.512,18.921 C28.744,20.282 29.362,22.132 29.362,24.469 C29.362,26.487 28.801,28.313 27.680,29.946 C26.559,31.579 24.877,32.885 22.636,33.861 C20.394,34.838 17.671,35.326 14.469,35.326 C11.747,35.326 9.104,34.990 6.543,34.318 C3.980,33.645 1.898,32.749 0.297,31.627 L3.420,24.613 C4.925,25.607 6.670,26.407 8.656,27.015 C10.642,27.624 12.596,27.928 14.517,27.928 C18.168,27.928 19.994,27.015 19.994,25.190 C19.994,24.229 19.473,23.517 18.432,23.052 C17.391,22.588 15.718,22.100 13.412,21.587 C10.882,21.043 8.768,20.458 7.071,19.834 C5.373,19.209 3.916,18.208 2.699,16.831 C1.482,15.454 0.874,13.597 0.874,11.258 C0.874,9.209 1.434,7.360 2.555,5.710 C3.676,4.061 5.349,2.755 7.575,1.794 C9.801,0.834 12.531,0.353 15.766,0.353 C17.976,0.353 20.154,0.602 22.300,1.098 C24.445,1.595 26.335,2.323 27.968,3.284 L25.038,10.346 C21.835,8.616 18.728,7.751 15.718,7.751 Z"/>
</svg>