<svg id="menu" xmlns="http://www.w3.org/2000/svg" width="19.285" height="11.249" viewBox="0 0 19.285 11.249">
  <path id="Path_60" data-name="Path 60" d="M22.981,11.732H5.3a.806.806,0,0,1-.8-.8h0a.806.806,0,0,1,.8-.8H22.981a.806.806,0,0,1,.8.8h0A.806.806,0,0,1,22.981,11.732Z" transform="translate(-4.5 -10.125)" fill="#fff"/>
  <path id="Path_61" data-name="Path 61" d="M22.981,18.482H5.3a.806.806,0,0,1-.8-.8h0a.806.806,0,0,1,.8-.8H22.981a.806.806,0,0,1,.8.8h0A.806.806,0,0,1,22.981,18.482Z" transform="translate(-4.5 -12.054)" fill="#fff"/>
  <path id="Path_62" data-name="Path 62" d="M22.981,25.232H5.3a.806.806,0,0,1-.8-.8h0a.806.806,0,0,1,.8-.8H22.981a.806.806,0,0,1,.8.8h0A.806.806,0,0,1,22.981,25.232Z" transform="translate(-4.5 -13.983)" fill="#fff"/>
</svg>
