<svg xmlns="http://www.w3.org/2000/svg" width="16.665" height="16.834" viewBox="0 0 16.665 16.834">
  <path id="phonemob" d="M18.831,14.854v2.384a1.6,1.6,0,0,1-.51,1.177,1.567,1.567,0,0,1-1.207.412A15.778,15.778,0,0,1,5.592,11.62,15.813,15.813,0,0,1,3.174,4.732,1.6,1.6,0,0,1,3.58,3.518,1.569,1.569,0,0,1,4.742,3H7.1A1.58,1.58,0,0,1,8.679,4.366,10.275,10.275,0,0,0,9.231,6.6a1.6,1.6,0,0,1-.354,1.676l-1,1.009A12.657,12.657,0,0,0,12.6,14.051l1-1.009a1.565,1.565,0,0,1,1.662-.358,10.04,10.04,0,0,0,2.213.556,1.585,1.585,0,0,1,1.355,1.613Z" transform="translate(-2.667 -2.5)" fill="none" stroke="#fff" stroke-linecap="round" stroke-linejoin="round" stroke-width="1"/>
</svg>
