<svg xmlns="http://www.w3.org/2000/svg" width="20" height="20" fill="none" viewBox="0 0 20 20">
    <path fill="#B1BCD3" fill-rule="evenodd" d="M10 2c-4.411 0-8 3.589-8 8s3.589 8 8 8 8-3.589 8-8-3.589-8-8-8zm0 18C4.486 20 0 15.515 0 10 0 4.486 4.486 0 10 0s10 4.486 10 10c0 5.515-4.486 10-10 10zm1-7H9v-3h1c1.103 0 2-.897 2-2 0-1.104-.897-2-2-2s-2 .896-2 2H6c0-2.206 1.794-4 4-4s4 1.794 4 4a4.01 4.01 0 0 1-3 3.874V13zm.25 2a1.25 1.25 0 1 1-2.5 0 1.25 1.25 0 0 1 2.5 0z" clip-rule="evenodd"/>
</svg>
