<svg xmlns="http://www.w3.org/2000/svg" width="19.112" height="18.851" viewBox="0 0 19.112 18.851">
  <path id="shop" d="M4.334,18.851a1.643,1.643,0,0,1-1.512-1.139L.011,6.521a.3.3,0,0,1,.306-.382H4.63v.979a1.607,1.607,0,0,0,3.213,0V6.139h3.474v.979a1.607,1.607,0,0,0,3.214,0V6.139H18.8a.3.3,0,0,1,.306.382l-2.81,11.192a1.644,1.644,0,0,1-1.513,1.139ZM12.12,7.118V4.055a2.541,2.541,0,0,0-5.081,0V7.118a.8.8,0,0,1-1.607,0V4.055a4.148,4.148,0,0,1,8.294,0V7.118a.8.8,0,0,1-1.607,0Z" fill="#6787BD"/>
</svg>
