<?xml version="1.0" encoding="utf-8"?><svg xmlns="http://www.w3.org/2000/svg" xmlns:xlink="http://www.w3.org/1999/xlink"><symbol viewBox="0 0 30.372 35.813" id="_labcase" xmlns="http://www.w3.org/2000/svg"><g transform="translate(0 .5)"><path data-name="Path 31" d="M0 4.012v25.934a1.256 1.256 0 001.256 1.256h20.709a1.257 1.257 0 001.257-1.256V4.012a1.257 1.257 0 00-1.257-1.256H1.256A1.256 1.256 0 000 4.012zm19.286 23.911H3.936a1.256 1.256 0 01-1.257-1.256V9.362a1.257 1.257 0 011.257-1.257h15.35a1.256 1.256 0 011.256 1.257v17.3a1.256 1.256 0 01-1.256 1.261z" fill="#2a2a2a"/><g data-name="Group 29"><g data-name="Group 28"><path data-name="Path 32" d="M16.291 2.351h-2.776a.264.264 0 01-.263-.263V.264A.264.264 0 0012.989 0h-2.067a.264.264 0 00-.264.264v1.824a.263.263 0 01-.263.263H6.971a1.337 1.337 0 00-1.337 1.337h0a1.337 1.337 0 001.337 1.337h9.321a1.337 1.337 0 001.337-1.337h0a1.337 1.337 0 00-1.338-1.337z" stroke="#f5f5f5"/><path data-name="Path 33" d="M16.291 2.351h-2.776a.264.264 0 01-.263-.263V.264A.264.264 0 0012.989 0h-2.067a.264.264 0 00-.264.264v1.824a.263.263 0 01-.263.263H6.971a1.337 1.337 0 00-1.337 1.337 1.337 1.337 0 001.337 1.337h9.321a1.337 1.337 0 001.337-1.337 1.337 1.337 0 00-1.338-1.337z" fill="#2a2a2a"/></g></g><path data-name="Path 34" d="M29.872 28.045a6.768 6.768 0 11-6.768-6.768 6.768 6.768 0 016.768 6.768z" fill="#2a2a2a" stroke="#f5f5f5"/><path data-name="Path 35" d="M8.72 10.413l-.209-.21a.313.313 0 00-.44 0l-2.279 2.28-1.2-1.2a.263.263 0 00-.372 0l-.281.281a.263.263 0 000 .372l1.667 1.668a.263.263 0 00.372 0l.281-.281 2.467-2.467a.311.311 0 00-.006-.443z" fill="#2a2a2a"/><rect data-name="Rectangle 15" width="9.483" height="1.783" rx=".767" transform="translate(10.043 11.003)" fill="#2a2a2a"/><path data-name="Path 36" d="M8.72 14.912l-.209-.209a.312.312 0 00-.44 0l-2.276 2.279-1.2-1.2a.263.263 0 00-.372 0l-.281.281a.264.264 0 000 .372l1.667 1.668a.263.263 0 00.372 0l.281-.281 2.467-2.467a.312.312 0 000-.44z" fill="#2a2a2a"/><rect data-name="Rectangle 16" width="8.725" height="1.783" rx=".767" transform="translate(10.043 15.502)" fill="#2a2a2a"/><path data-name="Path 37" d="M8.72 19.41l-.209-.209a.312.312 0 00-.44 0l-2.279 2.28-1.2-1.2a.263.263 0 00-.372 0l-.281.281a.264.264 0 000 .372l1.667 1.668a.263.263 0 00.372 0l.281-.281 2.467-2.467a.311.311 0 00-.006-.444z" fill="#2a2a2a"/><rect data-name="Rectangle 17" width="7.935" height="1.783" rx=".741" transform="translate(10.043 20)" fill="#2a2a2a"/><path data-name="Path 38" d="M8.72 23.909l-.209-.21a.312.312 0 00-.44 0l-2.279 2.28-1.2-1.2a.263.263 0 00-.372 0l-.281.281a.263.263 0 000 .372L5.606 27.1a.263.263 0 00.372 0l.281-.281 2.467-2.467a.311.311 0 00-.006-.443z" fill="#2a2a2a"/><rect data-name="Rectangle 18" width="5.957" height="1.783" rx=".767" transform="translate(10.043 24.499)" fill="#2a2a2a"/><g data-name="Group 30"><path data-name="Path 39" d="M20.503 29.915a6.1 6.1 0 00-.422-2.5 5.267 5.267 0 01-.292-1.042 2.694 2.694 0 01.255-1.64 1.374 1.374 0 011.3-.8 3.441 3.441 0 01.884.132c.255.064.51.128.767.195a.832.832 0 00.425-.006c.311-.077.624-.161.937-.236a2.72 2.72 0 01.783-.077 1.358 1.358 0 011.172.726 2.607 2.607 0 01.277.8 3.2 3.2 0 01-.174 1.651c-.119.355-.247.709-.348 1.069a5.692 5.692 0 00-.188 1.71 5.014 5.014 0 01-.072 1.133 3.584 3.584 0 01-.576 1.413 1.613 1.613 0 01-.383.394.672.672 0 01-.652.1.653.653 0 01-.357-.358 1.817 1.817 0 01-.153-.61 54.239 54.239 0 01-.109-1.4 5.86 5.86 0 00-.154-1.131 1.121 1.121 0 00-.106-.254c-.069-.119-.176-.117-.25 0a1.136 1.136 0 00-.139.4 8.444 8.444 0 00-.132 1.228 10.216 10.216 0 01-.119 1.3 2.073 2.073 0 01-.13.46.633.633 0 01-.99.265 1.832 1.832 0 01-.532-.606 3.7 3.7 0 01-.493-1.584c-.018-.263-.021-.535-.029-.732zm.366-.126v.261a4.256 4.256 0 00.163 1.281 2.839 2.839 0 00.508 1 .824.824 0 00.323.259.245.245 0 00.329-.11.643.643 0 00.077-.19 4.945 4.945 0 00.094-.551c.043-.492.071-.984.109-1.475a4.618 4.618 0 01.14-.908 1.1 1.1 0 01.23-.46.468.468 0 01.712 0 1.154 1.154 0 01.239.5 6.539 6.539 0 01.153 1.173c.031.423.056.844.1 1.27a3.534 3.534 0 00.117.552.361.361 0 00.111.167.257.257 0 00.314 0 1.04 1.04 0 00.335-.318 3.171 3.171 0 00.513-1.2 5.281 5.281 0 00.091-1.143c0-.253-.011-.509.009-.76a6.612 6.612 0 01.364-1.659 7.9 7.9 0 00.322-1.022 2.378 2.378 0 00-.165-1.514 1.019 1.019 0 00-.844-.644 2.009 2.009 0 00-.691.05c-.337.077-.671.166-1.006.248a.971.971 0 01-.466.036c-.182-.045-.366-.087-.549-.134a5.424 5.424 0 00-1.056-.209 1.038 1.038 0 00-1.069.59 2.334 2.334 0 00-.219 1.458 4.974 4.974 0 00.261.91 6.333 6.333 0 01.455 2.542z" fill="#f5f5f5"/><path data-name="Path 40" d="M20.87 29.789a6.338 6.338 0 00-.456-2.532 5.015 5.015 0 01-.261-.91 2.333 2.333 0 01.22-1.458 1.038 1.038 0 011.07-.59 5.439 5.439 0 011.056.209c.182.047.367.088.549.134a.97.97 0 00.466-.036c.335-.081.67-.17 1.007-.248a2.007 2.007 0 01.69-.05 1.019 1.019 0 01.844.644 2.378 2.378 0 01.165 1.514 7.94 7.94 0 01-.322 1.022 6.623 6.623 0 00-.364 1.659c-.021.252-.008.507-.009.76a5.3 5.3 0 01-.091 1.143 3.178 3.178 0 01-.513 1.2 1.049 1.049 0 01-.335.318.257.257 0 01-.314 0 .364.364 0 01-.111-.167 3.546 3.546 0 01-.117-.552c-.042-.423-.068-.844-.1-1.27a6.572 6.572 0 00-.153-1.173 1.156 1.156 0 00-.239-.5.468.468 0 00-.712 0 1.1 1.1 0 00-.23.46 4.619 4.619 0 00-.141.908c-.037.491-.066.984-.109 1.476a5.058 5.058 0 01-.094.551.661.661 0 01-.077.19.246.246 0 01-.329.11.824.824 0 01-.323-.259 2.843 2.843 0 01-.508-1 4.252 4.252 0 01-.163-1.281zm2.326-4.086a1.794 1.794 0 00.257-.025 5.54 5.54 0 00.531-.154.691.691 0 01.522.023c.032.015.064.031.1.044.054.021.1 0 .131-.066a.087.087 0 00.016-.071.088.088 0 00-.041-.059.858.858 0 00-.515-.139 2.044 2.044 0 00-.414.1 1.535 1.535 0 01-.763.1 3.3 3.3 0 01-.527-.144.91.91 0 00-.772.067c-.072.038-.088.082-.055.147a.1.1 0 00.157.051.722.722 0 01.637-.037c.028.012.059.021.088.032a1.988 1.988 0 00.648.131z" fill="none"/></g></g></symbol><symbol viewBox="0 0 30.372 35.813" id="_labcase-white" xmlns="http://www.w3.org/2000/svg"><g transform="translate(0 .5)"><path data-name="Path 31" d="M0 4.012v25.934a1.256 1.256 0 001.256 1.256h20.709a1.257 1.257 0 001.257-1.256V4.012a1.257 1.257 0 00-1.257-1.256H1.256A1.256 1.256 0 000 4.012zm19.286 23.911H3.936a1.256 1.256 0 01-1.257-1.256V9.362a1.257 1.257 0 011.257-1.257h15.35a1.256 1.256 0 011.256 1.257v17.3a1.256 1.256 0 01-1.256 1.261z" fill="#fff"/><g data-name="Group 29"><g data-name="Group 28"><path data-name="Path 32" d="M16.291 2.351h-2.776a.264.264 0 01-.263-.263V.264A.264.264 0 0012.989 0h-2.067a.264.264 0 00-.264.264v1.824a.263.263 0 01-.263.263H6.971a1.337 1.337 0 00-1.337 1.337h0a1.337 1.337 0 001.337 1.337h9.321a1.337 1.337 0 001.337-1.337h0a1.337 1.337 0 00-1.338-1.337z" stroke="#f5f5f5"/><path data-name="Path 33" d="M16.291 2.351h-2.776a.264.264 0 01-.263-.263V.264A.264.264 0 0012.989 0h-2.067a.264.264 0 00-.264.264v1.824a.263.263 0 01-.263.263H6.971a1.337 1.337 0 00-1.337 1.337 1.337 1.337 0 001.337 1.337h9.321a1.337 1.337 0 001.337-1.337 1.337 1.337 0 00-1.338-1.337z" fill="#fff"/></g></g><path data-name="Path 34" d="M29.872 28.045a6.768 6.768 0 11-6.768-6.768 6.768 6.768 0 016.768 6.768z" fill="#fff" stroke="#f5f5f5"/><path data-name="Path 35" d="M8.72 10.413l-.209-.21a.313.313 0 00-.44 0l-2.279 2.28-1.2-1.2a.263.263 0 00-.372 0l-.281.281a.263.263 0 000 .372l1.667 1.668a.263.263 0 00.372 0l.281-.281 2.467-2.467a.311.311 0 00-.006-.443z" fill="#fff"/><rect data-name="Rectangle 15" width="9.483" height="1.783" rx=".767" transform="translate(10.043 11.003)" fill="#fff"/><path data-name="Path 36" d="M8.72 14.912l-.209-.209a.312.312 0 00-.44 0l-2.276 2.279-1.2-1.2a.263.263 0 00-.372 0l-.281.281a.264.264 0 000 .372l1.667 1.668a.263.263 0 00.372 0l.281-.281 2.467-2.467a.312.312 0 000-.44z" fill="#fff"/><rect data-name="Rectangle 16" width="8.725" height="1.783" rx=".767" transform="translate(10.043 15.502)" fill="#fff"/><path data-name="Path 37" d="M8.72 19.41l-.209-.209a.312.312 0 00-.44 0l-2.279 2.28-1.2-1.2a.263.263 0 00-.372 0l-.281.281a.264.264 0 000 .372l1.667 1.668a.263.263 0 00.372 0l.281-.281 2.467-2.467a.311.311 0 00-.006-.444z" fill="#fff"/><rect data-name="Rectangle 17" width="7.935" height="1.783" rx=".741" transform="translate(10.043 20)" fill="#fff"/><path data-name="Path 38" d="M8.72 23.909l-.209-.21a.312.312 0 00-.44 0l-2.279 2.28-1.2-1.2a.263.263 0 00-.372 0l-.281.281a.263.263 0 000 .372L5.606 27.1a.263.263 0 00.372 0l.281-.281 2.467-2.467a.311.311 0 00-.006-.443z" fill="#fff"/><rect data-name="Rectangle 18" width="5.957" height="1.783" rx=".767" transform="translate(10.043 24.499)" fill="#fff"/><g data-name="Group 30"><path data-name="Path 39" d="M20.503 29.915a6.1 6.1 0 00-.422-2.5 5.267 5.267 0 01-.292-1.042 2.694 2.694 0 01.255-1.64 1.374 1.374 0 011.3-.8 3.441 3.441 0 01.884.132c.255.064.51.128.767.195a.832.832 0 00.425-.006c.311-.077.624-.161.937-.236a2.72 2.72 0 01.783-.077 1.358 1.358 0 011.172.726 2.607 2.607 0 01.277.8 3.2 3.2 0 01-.174 1.651c-.119.355-.247.709-.348 1.069a5.692 5.692 0 00-.188 1.71 5.014 5.014 0 01-.072 1.133 3.584 3.584 0 01-.576 1.413 1.613 1.613 0 01-.383.394.672.672 0 01-.652.1.653.653 0 01-.357-.358 1.817 1.817 0 01-.153-.61 54.239 54.239 0 01-.109-1.4 5.86 5.86 0 00-.154-1.131 1.121 1.121 0 00-.106-.254c-.069-.119-.176-.117-.25 0a1.136 1.136 0 00-.139.4 8.444 8.444 0 00-.132 1.228 10.216 10.216 0 01-.119 1.3 2.073 2.073 0 01-.13.46.633.633 0 01-.99.265 1.832 1.832 0 01-.532-.606 3.7 3.7 0 01-.493-1.584c-.018-.263-.021-.535-.029-.732zm.366-.126v.261a4.256 4.256 0 00.163 1.281 2.839 2.839 0 00.508 1 .824.824 0 00.323.259.245.245 0 00.329-.11.643.643 0 00.077-.19 4.945 4.945 0 00.094-.551c.043-.492.071-.984.109-1.475a4.618 4.618 0 01.14-.908 1.1 1.1 0 01.23-.46.468.468 0 01.712 0 1.154 1.154 0 01.239.5 6.539 6.539 0 01.153 1.173c.031.423.056.844.1 1.27a3.534 3.534 0 00.117.552.361.361 0 00.111.167.257.257 0 00.314 0 1.04 1.04 0 00.335-.318 3.171 3.171 0 00.513-1.2 5.281 5.281 0 00.091-1.143c0-.253-.011-.509.009-.76a6.612 6.612 0 01.364-1.659 7.9 7.9 0 00.322-1.022 2.378 2.378 0 00-.165-1.514 1.019 1.019 0 00-.844-.644 2.009 2.009 0 00-.691.05c-.337.077-.671.166-1.006.248a.971.971 0 01-.466.036c-.182-.045-.366-.087-.549-.134a5.424 5.424 0 00-1.056-.209 1.038 1.038 0 00-1.069.59 2.334 2.334 0 00-.219 1.458 4.974 4.974 0 00.261.91 6.333 6.333 0 01.455 2.542z" fill="#033792"/><path data-name="Path 40" d="M20.87 29.789a6.338 6.338 0 00-.456-2.532 5.015 5.015 0 01-.261-.91 2.333 2.333 0 01.22-1.458 1.038 1.038 0 011.07-.59 5.439 5.439 0 011.056.209c.182.047.367.088.549.134a.97.97 0 00.466-.036c.335-.081.67-.17 1.007-.248a2.007 2.007 0 01.69-.05 1.019 1.019 0 01.844.644 2.378 2.378 0 01.165 1.514 7.94 7.94 0 01-.322 1.022 6.623 6.623 0 00-.364 1.659c-.021.252-.008.507-.009.76a5.3 5.3 0 01-.091 1.143 3.178 3.178 0 01-.513 1.2 1.049 1.049 0 01-.335.318.257.257 0 01-.314 0 .364.364 0 01-.111-.167 3.546 3.546 0 01-.117-.552c-.042-.423-.068-.844-.1-1.27a6.572 6.572 0 00-.153-1.173 1.156 1.156 0 00-.239-.5.468.468 0 00-.712 0 1.1 1.1 0 00-.23.46 4.619 4.619 0 00-.141.908c-.037.491-.066.984-.109 1.476a5.058 5.058 0 01-.094.551.661.661 0 01-.077.19.246.246 0 01-.329.11.824.824 0 01-.323-.259 2.843 2.843 0 01-.508-1 4.252 4.252 0 01-.163-1.281zm2.326-4.086a1.794 1.794 0 00.257-.025 5.54 5.54 0 00.531-.154.691.691 0 01.522.023c.032.015.064.031.1.044.054.021.1 0 .131-.066a.087.087 0 00.016-.071.088.088 0 00-.041-.059.858.858 0 00-.515-.139 2.044 2.044 0 00-.414.1 1.535 1.535 0 01-.763.1 3.3 3.3 0 01-.527-.144.91.91 0 00-.772.067c-.072.038-.088.082-.055.147a.1.1 0 00.157.051.722.722 0 01.637-.037c.028.012.059.021.088.032a1.988 1.988 0 00.648.131z" fill="none"/></g></g></symbol><symbol viewBox="0 0 23 22" id="account" xmlns="http://www.w3.org/2000/svg"><path data-name="Forma 1" d="M.813 22A.808.808 0 010 21.185a7.75 7.75 0 017.724-7.757h7.553A7.75 7.75 0 0123 21.185a.808.808 0 01-.813.815zm.869-1.631h19.637a6.1 6.1 0 00-6.042-5.311H7.724a6.121 6.121 0 00-6.043 5.311zM5.306 6.163a6.156 6.156 0 116.156 6.183 6.166 6.166 0 01-6.156-6.183zm1.624 0a4.532 4.532 0 104.532-4.551A4.556 4.556 0 006.93 6.163z" fill="#fff"/></symbol><symbol viewBox="0 0 34 37" id="arleft" xmlns="http://www.w3.org/2000/svg"><g fill="none"><path d="M0 18.5L34 0v37z"/><path d="M4.185 18.5L32 33.635V3.365L4.185 18.5M0 18.5L34 0v37L0 18.5z" fill="#2a2a2a"/></g></symbol><symbol viewBox="0 0 34 37" id="arright" xmlns="http://www.w3.org/2000/svg"><g fill="none"><path d="M34 18.5L0 37V0z"/><path d="M29.815 18.5L2 3.365v30.27L29.815 18.5m4.185 0L0 37V0l34 18.5z" fill="#2a2a2a"/></g></symbol><symbol viewBox="0 0 20 33" id="arrleft-rt" xmlns="http://www.w3.org/2000/svg"><path d="M.386.338a1.072 1.072 0 000 1.649l16.457 14.5L.386 31.013a1.073 1.073 0 000 1.649 1.449 1.449 0 001.868 0L19.613 17.34a1.077 1.077 0 00.386-.824 1.121 1.121 0 00-.386-.824L2.254.37A1.417 1.417 0 00.386.338z" fill="#383838"/></symbol><symbol viewBox="0 0 20 33" id="arrleft-sl" xmlns="http://www.w3.org/2000/svg"><path d="M19.614 32.662a1.072 1.072 0 000-1.649l-16.457-14.5L19.614 1.987a1.073 1.073 0 000-1.649 1.449 1.449 0 00-1.868 0L.387 15.66a1.077 1.077 0 00-.386.824 1.121 1.121 0 00.386.824L17.746 32.63a1.417 1.417 0 001.868.032z" fill="#383838"/></symbol><symbol viewBox="0 0 9.966 5.698" id="arrowdownwhite" xmlns="http://www.w3.org/2000/svg"><path d="M4.984 3.981L8.752.21a.709.709 0 011.006 0 .718.718 0 010 1.009l-4.27 4.273a.711.711 0 01-.982.021l-4.3-4.29A.713.713 0 111.212.213z" fill="#fff"/></symbol><symbol viewBox="0 0 38.684 34" id="basket" xmlns="http://www.w3.org/2000/svg"><g fill="#2A2A2A"><path d="M12.464 22.667h20.554a1.134 1.134 0 001.09-.822l4.533-15.867a1.133 1.133 0 00-1.09-1.445H9.85L9.04.888A1.134 1.134 0 007.933 0h-6.8a1.133 1.133 0 100 2.267h5.891l4.092 18.413a3.4 3.4 0 001.351 6.52h20.551a1.133 1.133 0 100-2.267H12.466a1.133 1.133 0 010-2.266zM36.048 6.8l-3.886 13.6H13.376L10.353 6.8zm0 0M11.333 30.6a3.4 3.4 0 103.4-3.4 3.4 3.4 0 00-3.4 3.4zm3.4-1.133A1.133 1.133 0 1113.6 30.6a1.135 1.135 0 011.133-1.133zm0 0M27.351 30.6a3.4 3.4 0 103.4-3.4 3.4 3.4 0 00-3.4 3.4zm3.4-1.133a1.133 1.133 0 11-1.133 1.133 1.135 1.135 0 011.133-1.133zm0 0"/></g></symbol><symbol viewBox="0 0 37.482 21.941" id="basket-arrowprod" xmlns="http://www.w3.org/2000/svg"><g fill="#fff"><path data-name="Path 1" d="M20.561 14.627h13.264a.731.731 0 00.7-.53l2.928-10.239a.731.731 0 00-.7-.932H18.874L18.351.573A.731.731 0 0017.637 0h-4.388a.732.732 0 100 1.463h3.8l2.642 11.882a2.194 2.194 0 00.872 4.207h13.262a.732.732 0 100-1.463H20.563a.732.732 0 010-1.463zM35.78 4.388l-2.508 8.776H21.149l-1.95-8.776zm0 0"/><path data-name="Path 2" d="M19.832 19.747a2.194 2.194 0 102.194-2.194 2.2 2.2 0 00-2.194 2.194zm2.194-.731a.731.731 0 11-.731.731.732.732 0 01.731-.731zm0 0"/><path data-name="Path 3" d="M30.168 19.747a2.194 2.194 0 102.194-2.194 2.2 2.2 0 00-2.194 2.194zm2.194-.731a.731.731 0 11-.731.731.732.732 0 01.731-.731zm0 0"/></g><path data-name="Path 62" d="M9.331 8.67V5.277l5.938 5.938-5.938 5.938v-3.478c-4.241 0-7.21 1.357-9.331 4.326.848-4.241 3.393-8.483 9.331-9.331z" fill="#fff"/></symbol><symbol viewBox="0 0 38.684 34" id="basket-white" xmlns="http://www.w3.org/2000/svg"><g fill="#fff"><path data-name="Path 1" d="M12.464 22.667h20.554a1.134 1.134 0 001.09-.822l4.533-15.867a1.133 1.133 0 00-1.09-1.445H9.85L9.04.888A1.134 1.134 0 007.933 0h-6.8a1.133 1.133 0 100 2.267h5.891l4.092 18.413a3.4 3.4 0 001.351 6.52h20.551a1.133 1.133 0 100-2.267H12.466a1.133 1.133 0 010-2.266zM36.048 6.8l-3.886 13.6H13.376L10.353 6.8zm0 0"/><path data-name="Path 2" d="M11.333 30.6a3.4 3.4 0 103.4-3.4 3.4 3.4 0 00-3.4 3.4zm3.4-1.133A1.133 1.133 0 1113.6 30.6a1.135 1.135 0 011.133-1.133zm0 0"/><path data-name="Path 3" d="M27.351 30.6a3.4 3.4 0 103.4-3.4 3.4 3.4 0 00-3.4 3.4zm3.4-1.133a1.133 1.133 0 11-1.133 1.133 1.135 1.135 0 011.133-1.133zm0 0"/></g></symbol><symbol viewBox="0 0 31.858 28" id="basketblue" xmlns="http://www.w3.org/2000/svg"><path data-name="Path 1" d="M10.264 18.667h16.927a.934.934 0 00.9-.677l3.731-13.067a.933.933 0 00-.9-1.19H8.112l-.667-3A.934.934 0 006.533 0h-5.6a.934.934 0 100 1.867h4.852l3.37 15.164a2.8 2.8 0 001.112 5.369h16.924a.934.934 0 100-1.867H10.267a.933.933 0 010-1.866zM29.687 5.6l-3.2 11.2H11.015L8.526 5.6zm0 0" fill="#033792"/><path data-name="Path 2" d="M9.333 25.2a2.8 2.8 0 102.8-2.8 2.8 2.8 0 00-2.8 2.8zm2.8-.933a.933.933 0 11-.933.933.934.934 0 01.933-.933zm0 0" fill="#033792"/><path data-name="Path 3" d="M22.525 25.2a2.8 2.8 0 102.8-2.8 2.8 2.8 0 00-2.8 2.8zm2.8-.933a.933.933 0 11-.933.933.935.935 0 01.933-.933zm0 0" fill="#033792"/></symbol><symbol viewBox="0 0 24.964 21.941" id="basketheader" xmlns="http://www.w3.org/2000/svg"><path data-name="Path 1" d="M8.043 14.627h13.264a.731.731 0 00.7-.53l2.928-10.239a.731.731 0 00-.7-.932H6.356L5.833.573A.731.731 0 005.119 0H.731a.732.732 0 100 1.463h3.8l2.642 11.882a2.194 2.194 0 00.872 4.207h13.262a.732.732 0 100-1.463H8.045a.732.732 0 010-1.463zM23.262 4.388l-2.508 8.776H8.631l-1.95-8.776zm0 0" fill="#fff"/><path data-name="Path 2" d="M7.314 19.747a2.194 2.194 0 102.194-2.194 2.2 2.2 0 00-2.194 2.194zm2.194-.731a.731.731 0 11-.731.731.732.732 0 01.731-.731zm0 0" fill="#fff"/><path data-name="Path 3" d="M17.65 19.747a2.194 2.194 0 102.194-2.194 2.2 2.2 0 00-2.194 2.194zm2.194-.731a.731.731 0 11-.731.731.732.732 0 01.731-.731zm0 0" fill="#fff"/></symbol><symbol viewBox="0 0 19.734 17.345" id="basketmob" xmlns="http://www.w3.org/2000/svg"><g fill="#fff"><path data-name="Path 1" d="M6.358 11.563h10.485a.578.578 0 00.556-.419l2.313-8.094a.578.578 0 00-.556-.737H5.025L4.611.453A.578.578 0 004.047 0H.578a.578.578 0 000 1.156h3.005l2.088 9.394a1.734 1.734 0 00.689 3.326h10.483a.578.578 0 000-1.156H6.36a.578.578 0 010-1.156zM18.39 3.469l-1.982 6.938H6.823L5.282 3.469zm0 0"/><path data-name="Path 2" d="M5.782 15.61a1.734 1.734 0 101.734-1.734 1.736 1.736 0 00-1.734 1.734zm1.734-.578a.578.578 0 11-.578.578.579.579 0 01.578-.578zm0 0"/><path data-name="Path 3" d="M13.953 15.61a1.734 1.734 0 101.734-1.734 1.737 1.737 0 00-1.734 1.734zm1.734-.578a.578.578 0 11-.578.578.579.579 0 01.578-.578zm0 0"/></g></symbol><symbol viewBox="0 0 24.713 17.75" id="check-white" xmlns="http://www.w3.org/2000/svg"><g fill="none" stroke="#fff" stroke-linecap="round" stroke-width="2"><path data-name="Line 27" d="M1.414 9.372l6.963 6.963"/><path data-name="Line 28" d="M23.298 1.414L8.377 16.335"/></g></symbol><symbol viewBox="0 0 16 16" id="close-red" xmlns="http://www.w3.org/2000/svg"><path data-name="Forma 1" d="M0 8a8 8 0 118 8 8.009 8.009 0 01-8-8zm1.371 0A6.629 6.629 0 108 1.371 6.636 6.636 0 001.371 8zm8.754 3.1L8 8.97 5.874 11.1a.686.686 0 01-.97-.97L7.031 8 4.9 5.874a.686.686 0 11.97-.97L8 7.032 10.126 4.9a.686.686 0 11.97.97L8.969 8l2.131 2.127a.686.686 0 01-.97.97z" fill="#f15a2b"/></symbol><symbol viewBox="0 0 16.502 12.942" id="closemobmenu" xmlns="http://www.w3.org/2000/svg"><g fill="none" stroke="#000" stroke-linecap="round"><path data-name="Path 64" d="M1.812.767l12.88 11.42" stroke-width="1.00052"/><path data-name="Line 35" d="M14.697.76L1.817 12.18" stroke-width="1.00052"/></g></symbol><symbol viewBox="0 0 19.067 18.851" id="compare" xmlns="http://www.w3.org/2000/svg"><path d="M1.765 14.891L0 16.5v-5.9h6.484L3.54 13.28a7.177 7.177 0 0013.044-2.68h2.408a9.567 9.567 0 01-17.227 4.291zm17.227-6.643h-5.883l2.531-2.5a7.177 7.177 0 00-13.157 2.5H.074a9.567 9.567 0 0117.287-4.2l1.706-1.687v5.887z" fill="#6787BD"/></symbol><symbol viewBox="0 0 21.399 21.153" id="compareheader" xmlns="http://www.w3.org/2000/svg"><path d="M1.981 16.709L0 18.515v-6.618h7.277l-3.304 3a8.055 8.055 0 0014.639-3h2.7a10.737 10.737 0 01-19.331 4.812zm19.334-7.455h-6.6l2.841-2.806A8.055 8.055 0 002.787 9.254H.083a10.737 10.737 0 0119.4-4.714L21.4 2.646v6.608z" fill="#fff"/></symbol><symbol viewBox="0 0 38.428 37.575" id="dashboard" xmlns="http://www.w3.org/2000/svg"><path data-name="Path 21" d="M.173 27.507a.6.6 0 010-.844l8.059-7.97a.6.6 0 01.769-.06l3.643 2.638a.6.6 0 00.8-.089L23.623 9.628a.6.6 0 01.83-.064l5.052 4.215a.6.6 0 00.8-.037l6.784-6.783a.6.6 0 01.844 0 .6.6 0 010 .845l-7.556 7.556a.6.6 0 01-.8.036l-5-4.169a.6.6 0 00-.83.063L13.62 22.79a.6.6 0 01-.8.089l-3.7-2.68a.6.6 0 00-.769.06l-7.336 7.254a.6.6 0 01-.842-.006z" fill="#2a2a2a"/><path data-name="Path 22" d="M16.159 1.793A13.663 13.663 0 005.417 7l10.742 8.486z" fill="#2a2a2a"/><path data-name="Path 23" d="M36.733 10.473a.6.6 0 01-.553-.822l.61-1.5-1.6.549a.6.6 0 11-.387-1.13l2.837-.973a.6.6 0 01.747.789l-1.1 2.71a.6.6 0 01-.554.377z" fill="#2a2a2a"/><path data-name="Path 24" d="M16.159 16.084a.6.6 0 01-.37-.128L5.042 7.469a.6.6 0 01-.1-.839 14.219 14.219 0 0111.211-5.434.6.6 0 01.6.6V15.49a.6.6 0 01-.6.6zM6.266 6.911l9.3 7.344V2.404a13.012 13.012 0 00-9.3 4.512z" fill="#2a2a2a"/><path data-name="Path 25" d="M3.474 21.251a.6.6 0 01-.553-.372A14.3 14.3 0 014.948 6.631a.6.6 0 01.838-.1l9.774 7.723V1.794a.6.6 0 01.6-.6 14.329 14.329 0 0113.772 10.46.6.6 0 11-1.15.319 13.134 13.134 0 00-12.024-9.57v13.085a.6.6 0 01-.966.469L5.527 7.848a13.106 13.106 0 00-1.5 12.582.6.6 0 01-.328.777.586.586 0 01-.225.044z" fill="#2a2a2a"/><path data-name="Path 26" d="M16.159 29.777a14.209 14.209 0 01-10-4.086.6.6 0 11.838-.852 13.1 13.1 0 0022.153-7.681.6.6 0 011.184.153 14.31 14.31 0 01-14.175 12.466z" fill="#2a2a2a"/><g data-name="Group 14"><path data-name="Path 27" d="M31.49 8.927a.4.4 0 01-.4-.4V.396a.4.4 0 01.8 0v8.13a.4.4 0 01-.4.4z" fill="#2a2a2a"/></g><g data-name="Group 15"><path data-name="Path 28" d="M31.261 8.021a3.465 3.465 0 01-1.1-.185.4.4 0 11.254-.755c.952.322 1.968.066 2.219-.557a.878.878 0 00-.04-.7 2.058 2.058 0 00-1.229-.991 2.82 2.82 0 01-1.7-1.409 1.667 1.667 0 01-.056-1.328 2.5 2.5 0 013.211-1.015.4.4 0 01-.255.755c-.952-.322-1.968-.066-2.218.556a.88.88 0 00.04.7 2.058 2.058 0 001.229.991 2.82 2.82 0 011.7 1.409 1.663 1.663 0 01.055 1.328 2.166 2.166 0 01-2.11 1.201z" fill="#2a2a2a"/></g><g data-name="Group 16"><path data-name="Path 29" d="M34.57 27.05a.6.6 0 01-.6-.6V15.485a.6.6 0 111.194 0v10.969a.6.6 0 01-.6.6z" fill="#2a2a2a"/></g><g data-name="Group 17"><path data-name="Path 30" d="M34.259 25.83a4.706 4.706 0 01-1.5-.252.6.6 0 01.381-1.131c1.255.422 2.591.095 2.918-.717a1.121 1.121 0 00-.053-.893 2.712 2.712 0 00-1.623-1.3 3.865 3.865 0 01-2.326-1.932 2.307 2.307 0 01-.076-1.838c.573-1.427 2.509-2.043 4.407-1.4a.6.6 0 01-.381 1.132c-1.255-.423-2.591-.1-2.918.716a1.122 1.122 0 00.053.894 2.712 2.712 0 001.623 1.3 3.861 3.861 0 012.326 1.932 2.308 2.308 0 01.076 1.838 2.985 2.985 0 01-2.907 1.651z" fill="#2a2a2a"/></g><g data-name="Group 18"><path data-name="Rectangle 3" fill="#2a2a2a" d="M31.474 30.778h2.388v6.796h-2.388z"/></g><g data-name="Group 19"><path data-name="Rectangle 4" fill="#2a2a2a" d="M27.859 28.788h2.388v8.787h-2.388z"/></g><g data-name="Group 20"><path data-name="Rectangle 5" fill="#2a2a2a" d="M24.244 28.788h2.388v8.787h-2.388z"/></g><g data-name="Group 21"><path data-name="Rectangle 6" fill="#2a2a2a" d="M20.63 32.37h2.388v5.205H20.63z"/></g><g data-name="Group 22"><path data-name="Rectangle 7" fill="#2a2a2a" d="M17.016 31.176h2.388v6.399h-2.388z"/></g><g data-name="Group 23"><path data-name="Rectangle 8" fill="#2a2a2a" d="M13.401 32.768h2.388v4.806h-2.388z"/></g><g data-name="Group 24"><path data-name="Rectangle 9" fill="#2a2a2a" d="M9.786 35.155h2.388v2.419H9.786z"/></g><g data-name="Group 25"><path data-name="Rectangle 10" fill="#2a2a2a" d="M6.171 33.962h2.388v3.613H6.171z"/></g></symbol><symbol viewBox="0 0 38.428 37.575" id="dashboard-white" xmlns="http://www.w3.org/2000/svg"><path data-name="Path 21" d="M.173 27.507a.6.6 0 010-.844l8.059-7.97a.6.6 0 01.769-.06l3.643 2.638a.6.6 0 00.8-.089L23.623 9.628a.6.6 0 01.83-.064l5.052 4.215a.6.6 0 00.8-.037l6.784-6.783a.6.6 0 01.844 0 .6.6 0 010 .845l-7.556 7.556a.6.6 0 01-.8.036l-5-4.169a.6.6 0 00-.83.063L13.62 22.79a.6.6 0 01-.8.089l-3.7-2.68a.6.6 0 00-.769.06l-7.336 7.254a.6.6 0 01-.842-.006z" fill="#fff"/><path data-name="Path 22" d="M16.159 1.793A13.663 13.663 0 005.417 7l10.742 8.486z" fill="#fff"/><path data-name="Path 23" d="M36.733 10.473a.6.6 0 01-.553-.822l.61-1.5-1.6.549a.6.6 0 11-.387-1.13l2.837-.973a.6.6 0 01.747.789l-1.1 2.71a.6.6 0 01-.554.377z" fill="#fff"/><path data-name="Path 24" d="M16.159 16.084a.6.6 0 01-.37-.128L5.042 7.469a.6.6 0 01-.1-.839 14.219 14.219 0 0111.211-5.434.6.6 0 01.6.6V15.49a.6.6 0 01-.6.6zM6.266 6.911l9.3 7.344V2.404a13.012 13.012 0 00-9.3 4.512z" fill="#fff"/><path data-name="Path 25" d="M3.474 21.251a.6.6 0 01-.553-.372A14.3 14.3 0 014.948 6.631a.6.6 0 01.838-.1l9.774 7.723V1.794a.6.6 0 01.6-.6 14.329 14.329 0 0113.772 10.46.6.6 0 11-1.15.319 13.134 13.134 0 00-12.024-9.57v13.085a.6.6 0 01-.966.469L5.527 7.848a13.106 13.106 0 00-1.5 12.582.6.6 0 01-.328.777.586.586 0 01-.225.044z" fill="#fff"/><path data-name="Path 26" d="M16.159 29.777a14.209 14.209 0 01-10-4.086.6.6 0 11.838-.852 13.1 13.1 0 0022.153-7.681.6.6 0 011.184.153 14.31 14.31 0 01-14.175 12.466z" fill="#fff"/><g data-name="Group 14"><path data-name="Path 27" d="M31.49 8.927a.4.4 0 01-.4-.4V.396a.4.4 0 01.8 0v8.13a.4.4 0 01-.4.4z" fill="#fff"/></g><g data-name="Group 15"><path data-name="Path 28" d="M31.261 8.021a3.465 3.465 0 01-1.1-.185.4.4 0 11.254-.755c.952.322 1.968.066 2.219-.557a.878.878 0 00-.04-.7 2.058 2.058 0 00-1.229-.991 2.82 2.82 0 01-1.7-1.409 1.667 1.667 0 01-.056-1.328 2.5 2.5 0 013.211-1.015.4.4 0 01-.255.755c-.952-.322-1.968-.066-2.218.556a.88.88 0 00.04.7 2.058 2.058 0 001.229.991 2.82 2.82 0 011.7 1.409 1.663 1.663 0 01.055 1.328 2.166 2.166 0 01-2.11 1.201z" fill="#fff"/></g><g data-name="Group 16"><path data-name="Path 29" d="M34.57 27.05a.6.6 0 01-.6-.6V15.485a.6.6 0 111.194 0v10.969a.6.6 0 01-.6.6z" fill="#fff"/></g><g data-name="Group 17"><path data-name="Path 30" d="M34.259 25.83a4.706 4.706 0 01-1.5-.252.6.6 0 01.381-1.131c1.255.422 2.591.095 2.918-.717a1.121 1.121 0 00-.053-.893 2.712 2.712 0 00-1.623-1.3 3.865 3.865 0 01-2.326-1.932 2.307 2.307 0 01-.076-1.838c.573-1.427 2.509-2.043 4.407-1.4a.6.6 0 01-.381 1.132c-1.255-.423-2.591-.1-2.918.716a1.122 1.122 0 00.053.894 2.712 2.712 0 001.623 1.3 3.861 3.861 0 012.326 1.932 2.308 2.308 0 01.076 1.838 2.985 2.985 0 01-2.907 1.651z" fill="#fff"/></g><g data-name="Group 18"><path data-name="Rectangle 3" fill="#fff" d="M31.474 30.778h2.388v6.796h-2.388z"/></g><g data-name="Group 19"><path data-name="Rectangle 4" fill="#fff" d="M27.859 28.788h2.388v8.787h-2.388z"/></g><g data-name="Group 20"><path data-name="Rectangle 5" fill="#fff" d="M24.244 28.788h2.388v8.787h-2.388z"/></g><g data-name="Group 21"><path data-name="Rectangle 6" fill="#fff" d="M20.63 32.37h2.388v5.205H20.63z"/></g><g data-name="Group 22"><path data-name="Rectangle 7" fill="#fff" d="M17.016 31.176h2.388v6.399h-2.388z"/></g><g data-name="Group 23"><path data-name="Rectangle 8" fill="#fff" d="M13.401 32.768h2.388v4.806h-2.388z"/></g><g data-name="Group 24"><path data-name="Rectangle 9" fill="#fff" d="M9.786 35.155h2.388v2.419H9.786z"/></g><g data-name="Group 25"><path data-name="Rectangle 10" fill="#fff" d="M6.171 33.962h2.388v3.613H6.171z"/></g></symbol><symbol viewBox="0 0 29.071 28.425" id="dashboardblue" xmlns="http://www.w3.org/2000/svg"><path data-name="Path 21" d="M.131 20.809a.451.451 0 010-.639l6.1-6.029a.452.452 0 01.582-.045l2.756 2a.452.452 0 00.6-.067l7.7-8.741a.451.451 0 01.628-.048l3.822 3.189a.452.452 0 00.609-.028l5.132-5.132a.451.451 0 01.638 0 .452.452 0 010 .639l-5.713 5.713a.452.452 0 01-.608.027l-3.781-3.153a.451.451 0 00-.628.048l-7.661 8.7a.452.452 0 01-.6.068l-2.8-2.027a.45.45 0 00-.582.045L.773 20.82a.451.451 0 01-.642-.011z" fill="#033792"/><path data-name="Path 22" d="M12.225 1.357a10.336 10.336 0 00-8.127 3.939l8.127 6.42z" fill="#033792"/><path data-name="Path 23" d="M27.788 7.922a.453.453 0 01-.419-.622l.461-1.132-1.211.415a.452.452 0 11-.293-.854l2.146-.736a.451.451 0 01.565.6l-.832 2.05a.453.453 0 01-.417.279z" fill="#033792"/><path data-name="Path 24" d="M12.225 12.167a.451.451 0 01-.28-.1l-8.13-6.42a.452.452 0 01-.074-.634 10.756 10.756 0 018.481-4.11.451.451 0 01.452.451v10.359a.451.451 0 01-.452.451zM4.74 5.224l7.034 5.556V1.815A9.844 9.844 0 004.74 5.224z" fill="#033792"/><path data-name="Path 25" d="M2.628 16.076a.452.452 0 01-.419-.281A10.819 10.819 0 013.743 5.016a.452.452 0 01.634-.074l7.394 5.842V1.357a.451.451 0 01.451-.452 10.84 10.84 0 0110.419 7.91.452.452 0 11-.87.242 9.936 9.936 0 00-9.1-7.24v9.9a.451.451 0 01-.731.355L4.175 5.938a9.915 9.915 0 00-1.134 9.518.451.451 0 01-.248.588.444.444 0 01-.165.032z" fill="#033792"/><path data-name="Path 26" d="M12.224 22.527a10.749 10.749 0 01-7.568-3.091.452.452 0 11.634-.645 9.909 9.909 0 0016.764-5.81.454.454 0 01.9.115 10.826 10.826 0 01-10.73 9.431z" fill="#033792"/><g data-name="Group 14"><path data-name="Path 27" d="M23.822 6.753a.3.3 0 01-.3-.3V.302a.3.3 0 01.6 0v6.151a.3.3 0 01-.3.3z" fill="#033792"/></g><g data-name="Group 15"><path data-name="Path 28" d="M23.648 6.068a2.621 2.621 0 01-.833-.14.301.301 0 11.192-.571c.72.243 1.489.05 1.679-.422a.664.664 0 00-.031-.528 1.557 1.557 0 00-.93-.75 2.133 2.133 0 01-1.285-1.066 1.261 1.261 0 01-.042-1 1.89 1.89 0 012.429-.767.301.301 0 01-.193.571c-.72-.244-1.489-.05-1.678.421a.666.666 0 00.03.528 1.557 1.557 0 00.93.75 2.133 2.133 0 011.285 1.066 1.258 1.258 0 01.041 1 1.639 1.639 0 01-1.594.908z" fill="#033792"/></g><g data-name="Group 16"><path data-name="Path 29" d="M26.152 20.463a.452.452 0 01-.451-.451v-8.3a.451.451 0 11.9 0v8.3a.452.452 0 01-.452.451z" fill="#033792"/></g><g data-name="Group 17"><path data-name="Path 30" d="M25.917 19.54a3.561 3.561 0 01-1.138-.191.452.452 0 01.288-.856c.95.32 1.96.072 2.207-.542a.848.848 0 00-.04-.676 2.052 2.052 0 00-1.228-.984 2.924 2.924 0 01-1.76-1.462 1.746 1.746 0 01-.058-1.39 2.594 2.594 0 013.334-1.062.452.452 0 01-.288.856c-.95-.32-1.96-.072-2.207.542a.849.849 0 00.04.676 2.051 2.051 0 001.228.984 2.921 2.921 0 011.76 1.461 1.746 1.746 0 01.058 1.391 2.259 2.259 0 01-2.196 1.253z" fill="#033792"/></g><g data-name="Group 18"><path data-name="Rectangle 3" fill="#033792" d="M23.81 23.284h1.806v5.142H23.81z"/></g><g data-name="Group 19"><path data-name="Rectangle 4" fill="#033792" d="M21.075 21.778h1.806v6.647h-1.806z"/></g><g data-name="Group 20"><path data-name="Rectangle 5" fill="#033792" d="M18.341 21.778h1.806v6.647h-1.806z"/></g><g data-name="Group 21"><path data-name="Rectangle 6" fill="#033792" d="M15.607 24.488h1.806v3.938h-1.806z"/></g><g data-name="Group 22"><path data-name="Rectangle 7" fill="#033792" d="M12.872 23.585h1.806v4.841h-1.806z"/></g><g data-name="Group 23"><path data-name="Rectangle 8" fill="#033792" d="M10.138 24.789h1.806v3.636h-1.806z"/></g><g data-name="Group 24"><path data-name="Rectangle 9" fill="#033792" d="M7.403 26.595h1.806v1.83H7.403z"/></g><g data-name="Group 25"><path data-name="Rectangle 10" fill="#033792" d="M4.669 25.692h1.806v2.733H4.669z"/></g></symbol><symbol viewBox="0 0 36 36" id="edit-button"><circle cx="18" cy="18" r="18" fill="#F8F8F8"/><path fill="#C9AD91" d="M23.844 17.296l-3.64-3.64-9.704 9.705V27h3.64l9.704-9.704zm2.872-2.873a.966.966 0 000-1.368l-2.27-2.271a.966.966 0 00-1.369 0l-1.902 1.902 3.64 3.64 1.901-1.903z"/></symbol><symbol viewBox="0 0 27.957 27.788" id="facebook" xmlns="http://www.w3.org/2000/svg"><path d="M27.957 13.978a13.979 13.979 0 10-16.163 13.81v-9.769H8.243v-4.041h3.551v-3.08c0-3.5 2.086-5.438 5.28-5.438a21.513 21.513 0 013.129.273v3.438h-1.766a2.02 2.02 0 00-2.278 2.183v2.624h3.878l-.62 4.041h-3.255v9.769a13.984 13.984 0 0011.795-13.81z" fill="#fff"/></symbol><symbol viewBox="0 0 16.133 8.067" id="fixedarrowblue" xmlns="http://www.w3.org/2000/svg"><path d="M.165.156a.6.6 0 01.806 0l7.087 6.638 7.1-6.638a.6.6 0 01.806 0 .509.509 0 010 .753l-7.49 7a.578.578 0 01-.4.156.6.6 0 01-.4-.156l-7.491-7A.5.5 0 01.165.156z" fill="#033792"/></symbol><symbol viewBox="0 0 22 22" id="grid" xmlns="http://www.w3.org/2000/svg"><g stroke="#000" stroke-linecap="round" stroke-linejoin="round"><path data-name="Path 71" d="M.5.5h8.167v8.167H.5z"/><path data-name="Path 72" d="M13.333.5H21.5v8.167h-8.167z"/><path data-name="Path 73" d="M13.333 13.333H21.5V21.5h-8.167z"/><path data-name="Path 74" d="M.5 13.333h8.167V21.5H.5z"/></g></symbol><symbol viewBox="0 0 38.384 41.313" id="inventory" xmlns="http://www.w3.org/2000/svg"><g data-name="Group 2"><path data-name="Path 4" d="M32.245 35.716h-21.13a.748.748 0 01-.714-.515l-4.392-13.47a.748.748 0 01.714-.982h30.915a.747.747 0 01.694 1.025l-5.393 13.475a.747.747 0 01-.694.47zm-20.588-1.495h20.082l4.791-11.977H7.748z" fill="#2a2a2a"/></g><g data-name="Group 3"><path data-name="Path 5" d="M32.73 26.231H12.07a.748.748 0 010-1.495h20.66a.748.748 0 110 1.495z" fill="#2a2a2a"/></g><g data-name="Group 4"><path data-name="Path 6" d="M30.945 31.135h-17.84a.748.748 0 110-1.495h17.84a.748.748 0 110 1.495z" fill="#2a2a2a"/></g><g data-name="Group 5"><path data-name="Path 7" d="M7.887 21.921a.744.744 0 01-.541-.231l-2.9-3.036a1.439 1.439 0 00-1.041-.446H.773a.747.747 0 110-1.494h3.27a1.439 1.439 0 011.042.447l3.3 3.465a.783.783 0 01.061 1.04.747.747 0 01-.559.255z" fill="#2a2a2a"/></g><g data-name="Group 6"><path data-name="Path 8" d="M29.31 40.053H12.823l-1.182-4.733a.747.747 0 011.45-.363l.9 3.6h15.32a.748.748 0 010 1.495z" fill="#2a2a2a"/></g><g data-name="Group 7"><path data-name="Path 9" d="M15.116 39.306a2.007 2.007 0 11-2.006-2.007 2.007 2.007 0 012.006 2.007z" fill="#2a2a2a"/></g><g data-name="Group 8"><path data-name="Path 10" d="M31.314 39.306a2.007 2.007 0 11-2.007-2.007 2.007 2.007 0 012.007 2.007z" fill="#2a2a2a"/></g><path data-name="Path 11" d="M27.782 19.654a2.447 2.447 0 01-1.735-.714l-2.674-2.673a2.453 2.453 0 010-3.47l2.674-2.674a2.457 2.457 0 013.47 0l2.673 2.674a2.457 2.457 0 010 3.47l-2.674 2.673a2.446 2.446 0 01-1.734.714zm-.679-1.774a.96.96 0 001.356 0l2.674-2.679a.961.961 0 000-1.355l-2.674-2.674a.961.961 0 00-1.356 0l-2.674 2.674a.959.959 0 000 1.356z" fill="#2a2a2a"/><path data-name="Path 12" d="M34.124 11.71a1.637 1.637 0 01-1.166-.483l-2.22-2.22a1.65 1.65 0 010-2.332l2.22-2.22a1.689 1.689 0 012.332 0l2.22 2.22a1.649 1.649 0 010 2.332l-2.221 2.22a1.635 1.635 0 01-1.165.483zm-.11-1.539a.135.135 0 00.218 0l2.221-2.221a.151.151 0 00.046-.109.153.153 0 00-.046-.11l-2.22-2.22a.135.135 0 00-.219 0l-2.22 2.22a.153.153 0 00-.045.11.151.151 0 00.045.109z" fill="#2a2a2a"/><path data-name="Path 13" d="M23.253 10.486a.992.992 0 01-.705-.293l-2.22-2.22a1 1 0 010-1.409l2.222-2.221a1.021 1.021 0 011.41 0l2.22 2.22a1 1 0 010 1.409l-2.221 2.221a.99.99 0 01-.706.293zm.357-1.348zm-1.869-1.869l1.518 1.518 1.518-1.518-1.518-1.518z" fill="#2a2a2a"/><path data-name="Path 14" d="M12.003 19.291a.747.747 0 01-.747-.747V.744a.746.746 0 01.747-.747h15.779a.746.746 0 01.747.747v3.732a.748.748 0 11-1.495 0V1.492H12.747v17.05a.747.747 0 01-.744.747z" fill="#2a2a2a"/><path data-name="Path 15" d="M16.151 6.805a.5.5 0 01-.352-.146L14.76 5.621a.5.5 0 11.7-.7l.687.687 2.585-2.585a.5.5 0 11.7.7L16.495 6.66a.5.5 0 01-.344.145z" fill="#2a2a2a"/><path data-name="Path 16" d="M16.151 12.583a.5.5 0 01-.352-.146l-1.039-1.039a.5.5 0 11.7-.7l.687.688 2.588-2.587a.5.5 0 11.7.7l-2.937 2.937a.5.5 0 01-.347.147z" fill="#2a2a2a"/><path data-name="Path 17" d="M16.151 18.362a.5.5 0 01-.352-.146l-1.039-1.039a.5.5 0 11.7-.7l.687.687 2.585-2.584a.5.5 0 11.7.7l-2.937 2.937a.5.5 0 01-.344.145z" fill="#2a2a2a"/></symbol><symbol viewBox="0 0 38.384 41.313" id="inventory-white" xmlns="http://www.w3.org/2000/svg"><g data-name="Group 2"><path data-name="Path 4" d="M32.245 35.716h-21.13a.748.748 0 01-.714-.515l-4.392-13.47a.748.748 0 01.714-.982h30.915a.747.747 0 01.694 1.025l-5.393 13.475a.747.747 0 01-.694.47zm-20.588-1.495h20.082l4.791-11.977H7.748z" fill="#fff"/></g><g data-name="Group 3"><path data-name="Path 5" d="M32.73 26.231H12.07a.748.748 0 010-1.495h20.66a.748.748 0 110 1.495z" fill="#fff"/></g><g data-name="Group 4"><path data-name="Path 6" d="M30.945 31.135h-17.84a.748.748 0 110-1.495h17.84a.748.748 0 110 1.495z" fill="#fff"/></g><g data-name="Group 5"><path data-name="Path 7" d="M7.887 21.921a.744.744 0 01-.541-.231l-2.9-3.036a1.439 1.439 0 00-1.041-.446H.773a.747.747 0 110-1.494h3.27a1.439 1.439 0 011.042.447l3.3 3.465a.783.783 0 01.061 1.04.747.747 0 01-.559.255z" fill="#fff"/></g><g data-name="Group 6"><path data-name="Path 8" d="M29.31 40.053H12.823l-1.182-4.733a.747.747 0 011.45-.363l.9 3.6h15.32a.748.748 0 010 1.495z" fill="#fff"/></g><g data-name="Group 7"><path data-name="Path 9" d="M15.116 39.306a2.007 2.007 0 11-2.006-2.007 2.007 2.007 0 012.006 2.007z" fill="#fff"/></g><g data-name="Group 8"><path data-name="Path 10" d="M31.314 39.306a2.007 2.007 0 11-2.007-2.007 2.007 2.007 0 012.007 2.007z" fill="#fff"/></g><path data-name="Path 11" d="M27.782 19.654a2.447 2.447 0 01-1.735-.714l-2.674-2.673a2.453 2.453 0 010-3.47l2.674-2.674a2.457 2.457 0 013.47 0l2.673 2.674a2.457 2.457 0 010 3.47l-2.674 2.673a2.446 2.446 0 01-1.734.714zm-.679-1.774a.96.96 0 001.356 0l2.674-2.679a.961.961 0 000-1.355l-2.674-2.674a.961.961 0 00-1.356 0l-2.674 2.674a.959.959 0 000 1.356z" fill="#fff"/><path data-name="Path 12" d="M34.124 11.71a1.637 1.637 0 01-1.166-.483l-2.22-2.22a1.65 1.65 0 010-2.332l2.22-2.22a1.689 1.689 0 012.332 0l2.22 2.22a1.649 1.649 0 010 2.332l-2.221 2.22a1.635 1.635 0 01-1.165.483zm-.11-1.539a.135.135 0 00.218 0l2.221-2.221a.151.151 0 00.046-.109.153.153 0 00-.046-.11l-2.22-2.22a.135.135 0 00-.219 0l-2.22 2.22a.153.153 0 00-.045.11.151.151 0 00.045.109z" fill="#fff"/><path data-name="Path 13" d="M23.253 10.486a.992.992 0 01-.705-.293l-2.22-2.22a1 1 0 010-1.409l2.222-2.221a1.021 1.021 0 011.41 0l2.22 2.22a1 1 0 010 1.409l-2.221 2.221a.99.99 0 01-.706.293zm.357-1.348zm-1.869-1.869l1.518 1.518 1.518-1.518-1.518-1.518z" fill="#fff"/><path data-name="Path 14" d="M12.003 19.291a.747.747 0 01-.747-.747V.744a.746.746 0 01.747-.747h15.779a.746.746 0 01.747.747v3.732a.748.748 0 11-1.495 0V1.492H12.747v17.05a.747.747 0 01-.744.747z" fill="#fff"/><path data-name="Path 15" d="M16.151 6.805a.5.5 0 01-.352-.146L14.76 5.621a.5.5 0 11.7-.7l.687.687 2.585-2.585a.5.5 0 11.7.7L16.495 6.66a.5.5 0 01-.344.145z" fill="#fff"/><path data-name="Path 16" d="M16.151 12.583a.5.5 0 01-.352-.146l-1.039-1.039a.5.5 0 11.7-.7l.687.688 2.588-2.587a.5.5 0 11.7.7l-2.937 2.937a.5.5 0 01-.347.147z" fill="#fff"/><path data-name="Path 17" d="M16.151 18.362a.5.5 0 01-.352-.146l-1.039-1.039a.5.5 0 11.7-.7l.687.687 2.585-2.584a.5.5 0 11.7.7l-2.937 2.937a.5.5 0 01-.344.145z" fill="#fff"/></symbol><symbol viewBox="0 0 25.468 27.411" id="inventoryblue" xmlns="http://www.w3.org/2000/svg"><g data-name="Group 2"><path data-name="Path 4" d="M21.394 23.698H7.374a.5.5 0 01-.474-.342l-2.914-8.937a.5.5 0 01.474-.652h20.512a.5.5 0 01.46.68l-3.577 8.939a.5.5 0 01-.46.312zm-13.66-.992h13.328l3.179-7.947h-19.1z" fill="#033792"/></g><g data-name="Group 3"><path data-name="Path 5" d="M21.72 17.405H8.008a.5.5 0 010-.992H21.72a.5.5 0 110 .992z" fill="#033792"/></g><g data-name="Group 4"><path data-name="Path 6" d="M20.532 20.659H8.698a.5.5 0 110-.992h11.834a.5.5 0 110 .992z" fill="#033792"/></g><g data-name="Group 5"><path data-name="Path 7" d="M5.234 14.543a.494.494 0 01-.359-.153L2.95 12.376a.955.955 0 00-.691-.3H.513a.5.5 0 110-.991h2.17a.955.955 0 01.691.3l2.192 2.3a.52.52 0 01.04.69.5.5 0 01-.372.168z" fill="#033792"/></g><g data-name="Group 6"><path data-name="Path 8" d="M19.447 26.575H8.508l-.784-3.14a.5.5 0 01.962-.241l.6 2.386h10.165a.5.5 0 010 .992z" fill="#033792"/></g><g data-name="Group 7"><path data-name="Path 9" d="M10.03 26.079a1.331 1.331 0 11-1.331-1.331 1.331 1.331 0 011.331 1.331z" fill="#033792"/></g><g data-name="Group 8"><path data-name="Path 10" d="M20.779 26.079a1.331 1.331 0 11-1.331-1.331 1.331 1.331 0 011.331 1.331z" fill="#033792"/></g><path data-name="Path 11" d="M18.433 13.044a1.624 1.624 0 01-1.151-.474l-1.774-1.774a1.628 1.628 0 010-2.3l1.774-1.774a1.63 1.63 0 012.3 0l1.774 1.774a1.631 1.631 0 010 2.3l-1.774 1.774a1.623 1.623 0 01-1.149.474zm-.45-1.177a.637.637 0 00.9 0l1.774-1.778a.637.637 0 000-.9l-1.774-1.775a.638.638 0 00-.9 0l-1.774 1.774a.636.636 0 000 .9z" fill="#033792"/><path data-name="Path 12" d="M22.641 7.77a1.086 1.086 0 01-.774-.321l-1.473-1.473a1.1 1.1 0 010-1.548l1.473-1.473a1.12 1.12 0 011.548 0l1.473 1.473a1.094 1.094 0 010 1.548l-1.474 1.473a1.085 1.085 0 01-.773.321zm-.073-1.021a.089.089 0 00.145 0l1.473-1.474a.1.1 0 00.03-.072.1.1 0 00-.03-.073l-1.473-1.473a.089.089 0 00-.145 0L21.095 5.13a.1.1 0 00-.03.073.1.1 0 00.03.072z" fill="#033792"/><path data-name="Path 13" d="M15.429 6.958a.658.658 0 01-.468-.194l-1.473-1.473a.662.662 0 010-.935l1.474-1.473a.677.677 0 01.936 0l1.473 1.473a.663.663 0 010 .935l-1.473 1.474a.657.657 0 01-.469.193zm.237-.895zm-1.24-1.24l1.007 1.007 1.007-1.007-1.007-1.007z" fill="#033792"/><path data-name="Path 14" d="M7.964 12.8a.5.5 0 01-.5-.5V.495a.5.5 0 01.5-.5h10.469a.5.5 0 01.5.5v2.476a.5.5 0 11-.992 0V.991h-9.48v11.312a.5.5 0 01-.494.5z" fill="#033792"/><path data-name="Path 15" d="M10.718 4.516a.33.33 0 01-.233-.1l-.69-.689a.331.331 0 11.467-.468l.456.456L12.433 2a.331.331 0 01.468.468l-1.949 1.949a.331.331 0 01-.234.099z" fill="#033792"/><path data-name="Path 16" d="M10.718 8.35a.33.33 0 01-.233-.1l-.69-.69a.331.331 0 11.467-.467l.456.456 1.715-1.715a.331.331 0 11.468.467L10.952 8.25a.33.33 0 01-.234.1z" fill="#033792"/><path data-name="Path 17" d="M10.718 12.183a.329.329 0 01-.233-.1l-.69-.69a.331.331 0 11.467-.467l.456.456 1.715-1.715a.331.331 0 11.468.467l-1.949 1.949a.329.329 0 01-.234.1z" fill="#033792"/></symbol><symbol viewBox="0 0 40.482 40.482" id="invoice" xmlns="http://www.w3.org/2000/svg"><path data-name="Rectangle 2" fill="none" stroke="#2a2a2a" stroke-width="2" d="M1 1h38.482v38.482H1z"/><g data-name="Group 10"><path data-name="Line 1" stroke="#2a2a2a" stroke-width="2" d="M15.957 10.425h16.361"/><path data-name="Path 18" d="M10.356 7.365l.759 2.337h2.462l-1.988 1.444.759 2.337-1.988-1.444-1.988 1.444.759-2.337-1.988-1.444H9.6z" fill="#2a2a2a"/></g><g data-name="Group 11"><path data-name="Line 2" stroke="#2a2a2a" stroke-width="2" d="M15.957 20.77h16.361"/><path data-name="Path 19" d="M10.356 17.711l.759 2.337h2.462l-1.988 1.444.759 2.337-1.988-1.444-1.988 1.444.759-2.337-1.988-1.444H9.6z" fill="#2a2a2a"/></g><g data-name="Group 12"><path data-name="Line 3" stroke="#2a2a2a" stroke-width="2" d="M15.957 31.115h16.361"/><path data-name="Path 20" d="M10.356 28.056l.759 2.337h2.462l-1.988 1.444.759 2.337-1.988-1.444-1.988 1.444.759-2.337-1.988-1.444H9.6z" fill="#2a2a2a"/></g></symbol><symbol viewBox="0 0 40.482 40.482" id="invoice-white" xmlns="http://www.w3.org/2000/svg"><path data-name="Rectangle 2" fill="none" stroke="#fff" stroke-width="2" d="M1 1h38.482v38.482H1z"/><g data-name="Group 10"><path data-name="Line 1" stroke="#fff" stroke-width="2" d="M15.957 10.425h16.361"/><path data-name="Path 18" d="M10.356 7.365l.759 2.337h2.462l-1.988 1.444.759 2.337-1.988-1.444-1.988 1.444.759-2.337-1.988-1.444H9.6z" fill="#fff"/></g><g data-name="Group 11"><path data-name="Line 2" stroke="#fff" stroke-width="2" d="M15.957 20.77h16.361"/><path data-name="Path 19" d="M10.356 17.711l.759 2.337h2.462l-1.988 1.444.759 2.337-1.988-1.444-1.988 1.444.759-2.337-1.988-1.444H9.6z" fill="#fff"/></g><g data-name="Group 12"><path data-name="Line 3" stroke="#fff" stroke-width="2" d="M15.957 31.115h16.361"/><path data-name="Path 20" d="M10.356 28.056l.759 2.337h2.462l-1.988 1.444.759 2.337-1.988-1.444-1.988 1.444.759-2.337-1.988-1.444H9.6z" fill="#fff"/></g></symbol><symbol viewBox="0 0 28.375 28.375" id="invoiceblue" xmlns="http://www.w3.org/2000/svg"><path data-name="Rectangle 2" fill="none" stroke="#033792" stroke-width="2" d="M1 1h26.375v26.375H1z"/><g data-name="Group 10"><path data-name="Line 1" stroke="#033792" stroke-width="2" d="M11.251 7.46h11.214"/><path data-name="Path 18" d="M7.412 5.363l.52 1.6h1.684l-1.362.99.52 1.6-1.362-.99-1.362.99.52-1.6-1.362-.99h1.684z" fill="#033792"/></g><g data-name="Group 11"><path data-name="Line 2" stroke="#033792" stroke-width="2" d="M11.251 14.55h11.214"/><path data-name="Path 19" d="M7.412 12.454l.52 1.6h1.684l-1.362.99.52 1.6-1.362-.99-1.362.99.52-1.6-1.362-.99h1.684z" fill="#033792"/></g><g data-name="Group 12"><path data-name="Line 3" stroke="#033792" stroke-width="2" d="M11.251 21.64h11.214"/><path data-name="Path 20" d="M7.412 19.544l.52 1.6h1.684l-1.362.99.52 1.6-1.362-.99-1.362.99.52-1.6-1.362-.99h1.684z" fill="#033792"/></g></symbol><symbol viewBox="0 0 30.372 35.813" id="labcase" xmlns="http://www.w3.org/2000/svg"><g transform="translate(0 .5)"><path data-name="Path 31" d="M0 4.012v25.934a1.256 1.256 0 001.256 1.256h20.709a1.257 1.257 0 001.257-1.256V4.012a1.257 1.257 0 00-1.257-1.256H1.256A1.256 1.256 0 000 4.012zm19.286 23.911H3.936a1.256 1.256 0 01-1.257-1.256V9.362a1.257 1.257 0 011.257-1.257h15.35a1.256 1.256 0 011.256 1.257v17.3a1.256 1.256 0 01-1.256 1.261z" fill="#2a2a2a"/><g data-name="Group 29"><g data-name="Group 28"><path data-name="Path 32" d="M16.291 2.351h-2.776a.264.264 0 01-.263-.263V.264A.264.264 0 0012.989 0h-2.067a.264.264 0 00-.264.264v1.824a.263.263 0 01-.263.263H6.971a1.337 1.337 0 00-1.337 1.337h0a1.337 1.337 0 001.337 1.337h9.321a1.337 1.337 0 001.337-1.337h0a1.337 1.337 0 00-1.338-1.337z" stroke="#f5f5f5"/><path data-name="Path 33" d="M16.291 2.351h-2.776a.264.264 0 01-.263-.263V.264A.264.264 0 0012.989 0h-2.067a.264.264 0 00-.264.264v1.824a.263.263 0 01-.263.263H6.971a1.337 1.337 0 00-1.337 1.337 1.337 1.337 0 001.337 1.337h9.321a1.337 1.337 0 001.337-1.337 1.337 1.337 0 00-1.338-1.337z" fill="#2a2a2a"/></g></g><path data-name="Path 34" d="M29.872 28.045a6.768 6.768 0 11-6.768-6.768 6.768 6.768 0 016.768 6.768z" fill="#2a2a2a" stroke="#f5f5f5"/><path data-name="Path 35" d="M8.72 10.413l-.209-.21a.313.313 0 00-.44 0l-2.279 2.28-1.2-1.2a.263.263 0 00-.372 0l-.281.281a.263.263 0 000 .372l1.667 1.668a.263.263 0 00.372 0l.281-.281 2.467-2.467a.311.311 0 00-.006-.443z" fill="#2a2a2a"/><rect data-name="Rectangle 15" width="9.483" height="1.783" rx=".767" transform="translate(10.043 11.003)" fill="#2a2a2a"/><path data-name="Path 36" d="M8.72 14.912l-.209-.209a.312.312 0 00-.44 0l-2.276 2.279-1.2-1.2a.263.263 0 00-.372 0l-.281.281a.264.264 0 000 .372l1.667 1.668a.263.263 0 00.372 0l.281-.281 2.467-2.467a.312.312 0 000-.44z" fill="#2a2a2a"/><rect data-name="Rectangle 16" width="8.725" height="1.783" rx=".767" transform="translate(10.043 15.502)" fill="#2a2a2a"/><path data-name="Path 37" d="M8.72 19.41l-.209-.209a.312.312 0 00-.44 0l-2.279 2.28-1.2-1.2a.263.263 0 00-.372 0l-.281.281a.264.264 0 000 .372l1.667 1.668a.263.263 0 00.372 0l.281-.281 2.467-2.467a.311.311 0 00-.006-.444z" fill="#2a2a2a"/><rect data-name="Rectangle 17" width="7.935" height="1.783" rx=".741" transform="translate(10.043 20)" fill="#2a2a2a"/><path data-name="Path 38" d="M8.72 23.909l-.209-.21a.312.312 0 00-.44 0l-2.279 2.28-1.2-1.2a.263.263 0 00-.372 0l-.281.281a.263.263 0 000 .372L5.606 27.1a.263.263 0 00.372 0l.281-.281 2.467-2.467a.311.311 0 00-.006-.443z" fill="#2a2a2a"/><rect data-name="Rectangle 18" width="5.957" height="1.783" rx=".767" transform="translate(10.043 24.499)" fill="#2a2a2a"/><g data-name="Group 30"><path data-name="Path 39" d="M20.503 29.915a6.1 6.1 0 00-.422-2.5 5.265 5.265 0 01-.292-1.042 2.694 2.694 0 01.255-1.64 1.374 1.374 0 011.3-.8 3.442 3.442 0 01.884.132c.255.064.51.128.767.195a.832.832 0 00.425-.006c.311-.077.624-.161.937-.236a2.72 2.72 0 01.783-.077 1.358 1.358 0 011.172.726 2.606 2.606 0 01.277.8 3.2 3.2 0 01-.174 1.651c-.119.355-.247.709-.348 1.069a5.7 5.7 0 00-.188 1.71 5.012 5.012 0 01-.072 1.133 3.584 3.584 0 01-.576 1.413 1.613 1.613 0 01-.383.394.672.672 0 01-.652.1.653.653 0 01-.357-.358 1.814 1.814 0 01-.153-.61 54.239 54.239 0 01-.109-1.4 5.86 5.86 0 00-.154-1.131 1.12 1.12 0 00-.106-.254c-.069-.119-.176-.117-.25 0a1.138 1.138 0 00-.139.4 8.446 8.446 0 00-.132 1.228 10.206 10.206 0 01-.119 1.3 2.067 2.067 0 01-.13.46.633.633 0 01-.99.265 1.831 1.831 0 01-.532-.606 3.7 3.7 0 01-.493-1.584c-.018-.263-.021-.535-.029-.732z" fill="#fff"/><path data-name="Path 40" d="M20.87 29.789a6.338 6.338 0 00-.456-2.532 5.012 5.012 0 01-.261-.91 2.333 2.333 0 01.22-1.458 1.038 1.038 0 011.07-.59 5.44 5.44 0 011.056.209c.182.047.367.088.549.134a.97.97 0 00.466-.036c.335-.081.67-.17 1.007-.248a2.007 2.007 0 01.69-.05 1.019 1.019 0 01.844.644 2.378 2.378 0 01.165 1.514 7.942 7.942 0 01-.322 1.022 6.626 6.626 0 00-.364 1.659c-.021.252-.008.507-.009.76a5.3 5.3 0 01-.091 1.143 3.177 3.177 0 01-.513 1.2 1.048 1.048 0 01-.335.318.257.257 0 01-.314 0 .364.364 0 01-.111-.167 3.542 3.542 0 01-.117-.552c-.042-.423-.068-.844-.1-1.27a6.575 6.575 0 00-.153-1.173 1.156 1.156 0 00-.239-.5.468.468 0 00-.712 0 1.1 1.1 0 00-.23.46 4.619 4.619 0 00-.141.908c-.037.491-.066.984-.109 1.476a5.055 5.055 0 01-.094.551.661.661 0 01-.077.19.246.246 0 01-.329.11.824.824 0 01-.323-.259 2.843 2.843 0 01-.508-1 4.252 4.252 0 01-.163-1.281zm2.326-4.086a1.8 1.8 0 00.257-.025 5.54 5.54 0 00.531-.154.691.691 0 01.522.023c.032.015.064.031.1.044.054.021.1 0 .131-.066a.087.087 0 00.016-.071.088.088 0 00-.041-.059.858.858 0 00-.515-.139 2.043 2.043 0 00-.414.1 1.535 1.535 0 01-.763.1 3.3 3.3 0 01-.527-.144.91.91 0 00-.772.067c-.072.038-.088.082-.055.147a.1.1 0 00.157.051.722.722 0 01.637-.037c.028.012.059.021.088.032a1.989 1.989 0 00.648.131z" fill="none"/></g></g></symbol><symbol viewBox="0 0 30.372 35.813" id="labcase-white" xmlns="http://www.w3.org/2000/svg"><g transform="translate(0 .5)"><path data-name="Path 31" d="M0 4.012v25.934a1.256 1.256 0 001.256 1.256h20.709a1.257 1.257 0 001.257-1.256V4.012a1.257 1.257 0 00-1.257-1.256H1.256A1.256 1.256 0 000 4.012zm19.286 23.911H3.936a1.256 1.256 0 01-1.257-1.256V9.362a1.257 1.257 0 011.257-1.257h15.35a1.256 1.256 0 011.256 1.257v17.3a1.256 1.256 0 01-1.256 1.261z" fill="#fff"/><g data-name="Group 29"><g data-name="Group 28"><path data-name="Path 32" d="M16.291 2.351h-2.776a.264.264 0 01-.263-.263V.264A.264.264 0 0012.989 0h-2.067a.264.264 0 00-.264.264v1.824a.263.263 0 01-.263.263H6.971a1.337 1.337 0 00-1.337 1.337h0a1.337 1.337 0 001.337 1.337h9.321a1.337 1.337 0 001.337-1.337h0a1.337 1.337 0 00-1.338-1.337z" stroke="#f5f5f5"/><path data-name="Path 33" d="M16.291 2.351h-2.776a.264.264 0 01-.263-.263V.264A.264.264 0 0012.989 0h-2.067a.264.264 0 00-.264.264v1.824a.263.263 0 01-.263.263H6.971a1.337 1.337 0 00-1.337 1.337 1.337 1.337 0 001.337 1.337h9.321a1.337 1.337 0 001.337-1.337 1.337 1.337 0 00-1.338-1.337z" fill="#fff"/></g></g><path data-name="Path 34" d="M29.872 28.045a6.768 6.768 0 11-6.768-6.768 6.768 6.768 0 016.768 6.768z" fill="#fff" stroke="#f5f5f5"/><path data-name="Path 35" d="M8.72 10.413l-.209-.21a.313.313 0 00-.44 0l-2.279 2.28-1.2-1.2a.263.263 0 00-.372 0l-.281.281a.263.263 0 000 .372l1.667 1.668a.263.263 0 00.372 0l.281-.281 2.467-2.467a.311.311 0 00-.006-.443z" fill="#fff"/><rect data-name="Rectangle 15" width="9.483" height="1.783" rx=".767" transform="translate(10.043 11.003)" fill="#fff"/><path data-name="Path 36" d="M8.72 14.912l-.209-.209a.312.312 0 00-.44 0l-2.276 2.279-1.2-1.2a.263.263 0 00-.372 0l-.281.281a.264.264 0 000 .372l1.667 1.668a.263.263 0 00.372 0l.281-.281 2.467-2.467a.312.312 0 000-.44z" fill="#fff"/><rect data-name="Rectangle 16" width="8.725" height="1.783" rx=".767" transform="translate(10.043 15.502)" fill="#fff"/><path data-name="Path 37" d="M8.72 19.41l-.209-.209a.312.312 0 00-.44 0l-2.279 2.28-1.2-1.2a.263.263 0 00-.372 0l-.281.281a.264.264 0 000 .372l1.667 1.668a.263.263 0 00.372 0l.281-.281 2.467-2.467a.311.311 0 00-.006-.444z" fill="#fff"/><rect data-name="Rectangle 17" width="7.935" height="1.783" rx=".741" transform="translate(10.043 20)" fill="#fff"/><path data-name="Path 38" d="M8.72 23.909l-.209-.21a.312.312 0 00-.44 0l-2.279 2.28-1.2-1.2a.263.263 0 00-.372 0l-.281.281a.263.263 0 000 .372L5.606 27.1a.263.263 0 00.372 0l.281-.281 2.467-2.467a.311.311 0 00-.006-.443z" fill="#fff"/><rect data-name="Rectangle 18" width="5.957" height="1.783" rx=".767" transform="translate(10.043 24.499)" fill="#fff"/><g data-name="Group 30"><path data-name="Path 39" d="M20.503 29.915a6.1 6.1 0 00-.422-2.5 5.265 5.265 0 01-.292-1.042 2.694 2.694 0 01.255-1.64 1.374 1.374 0 011.3-.8 3.442 3.442 0 01.884.132c.255.064.51.128.767.195a.832.832 0 00.425-.006c.311-.077.624-.161.937-.236a2.72 2.72 0 01.783-.077 1.358 1.358 0 011.172.726 2.606 2.606 0 01.277.8 3.2 3.2 0 01-.174 1.651c-.119.355-.247.709-.348 1.069a5.7 5.7 0 00-.188 1.71 5.012 5.012 0 01-.072 1.133 3.584 3.584 0 01-.576 1.413 1.613 1.613 0 01-.383.394.672.672 0 01-.652.1.653.653 0 01-.357-.358 1.814 1.814 0 01-.153-.61 54.239 54.239 0 01-.109-1.4 5.86 5.86 0 00-.154-1.131 1.12 1.12 0 00-.106-.254c-.069-.119-.176-.117-.25 0a1.138 1.138 0 00-.139.4 8.446 8.446 0 00-.132 1.228 10.206 10.206 0 01-.119 1.3 2.067 2.067 0 01-.13.46.633.633 0 01-.99.265 1.831 1.831 0 01-.532-.606 3.7 3.7 0 01-.493-1.584c-.018-.263-.021-.535-.029-.732z" fill="#033792"/><path data-name="Path 40" d="M20.87 29.789a6.338 6.338 0 00-.456-2.532 5.012 5.012 0 01-.261-.91 2.333 2.333 0 01.22-1.458 1.038 1.038 0 011.07-.59 5.44 5.44 0 011.056.209c.182.047.367.088.549.134a.97.97 0 00.466-.036c.335-.081.67-.17 1.007-.248a2.007 2.007 0 01.69-.05 1.019 1.019 0 01.844.644 2.378 2.378 0 01.165 1.514 7.942 7.942 0 01-.322 1.022 6.626 6.626 0 00-.364 1.659c-.021.252-.008.507-.009.76a5.3 5.3 0 01-.091 1.143 3.177 3.177 0 01-.513 1.2 1.048 1.048 0 01-.335.318.257.257 0 01-.314 0 .364.364 0 01-.111-.167 3.542 3.542 0 01-.117-.552c-.042-.423-.068-.844-.1-1.27a6.575 6.575 0 00-.153-1.173 1.156 1.156 0 00-.239-.5.468.468 0 00-.712 0 1.1 1.1 0 00-.23.46 4.619 4.619 0 00-.141.908c-.037.491-.066.984-.109 1.476a5.055 5.055 0 01-.094.551.661.661 0 01-.077.19.246.246 0 01-.329.11.824.824 0 01-.323-.259 2.843 2.843 0 01-.508-1 4.252 4.252 0 01-.163-1.281zm2.326-4.086a1.8 1.8 0 00.257-.025 5.54 5.54 0 00.531-.154.691.691 0 01.522.023c.032.015.064.031.1.044.054.021.1 0 .131-.066a.087.087 0 00.016-.071.088.088 0 00-.041-.059.858.858 0 00-.515-.139 2.043 2.043 0 00-.414.1 1.535 1.535 0 01-.763.1 3.3 3.3 0 01-.527-.144.91.91 0 00-.772.067c-.072.038-.088.082-.055.147a.1.1 0 00.157.051.722.722 0 01.637-.037c.028.012.059.021.088.032a1.989 1.989 0 00.648.131z" fill="none"/></g></g></symbol><symbol viewBox="0 0 27.5 32.466" id="labcaseblue" xmlns="http://www.w3.org/2000/svg"><g transform="translate(0 .5)"><path data-name="Path 31" d="M0 3.626v23.44a1.135 1.135 0 001.135 1.135h18.718a1.136 1.136 0 001.136-1.135V3.626a1.136 1.136 0 00-1.136-1.135H1.135A1.135 1.135 0 000 3.626zm17.432 21.612H3.558a1.135 1.135 0 01-1.136-1.135V8.462a1.136 1.136 0 011.136-1.136h13.874a1.135 1.135 0 011.135 1.136v15.641a1.135 1.135 0 01-1.135 1.136z" fill="#033792"/><g data-name="Group 29"><g data-name="Group 28"><path data-name="Path 32" d="M14.725 2.125h-2.51a.239.239 0 01-.238-.238V.239a.238.238 0 00-.238-.238H9.871a.238.238 0 00-.238.238v1.648a.238.238 0 01-.238.238h-3.1a1.209 1.209 0 00-1.209 1.209h0a1.208 1.208 0 001.209 1.209h8.425a1.209 1.209 0 001.209-1.209h0a1.209 1.209 0 00-1.204-1.209z" stroke="#f5f5f5"/><path data-name="Path 33" d="M14.725 2.125h-2.51a.239.239 0 01-.238-.238V.239a.238.238 0 00-.238-.238H9.871a.238.238 0 00-.238.238v1.648a.238.238 0 01-.238.238h-3.1a1.209 1.209 0 00-1.209 1.209 1.208 1.208 0 001.209 1.209h8.425a1.209 1.209 0 001.209-1.209 1.209 1.209 0 00-1.204-1.209z" fill="#033792"/></g></g><path data-name="Path 34" d="M27 25.348a6.117 6.117 0 11-6.117-6.118A6.117 6.117 0 0127 25.348z" fill="#fff" stroke="#033792"/><path data-name="Path 35" d="M7.882 9.412l-.189-.189a.283.283 0 00-.4 0l-2.06 2.061-1.089-1.089a.238.238 0 00-.336 0l-.254.254a.238.238 0 000 .336l1.507 1.508a.238.238 0 00.336 0l.254-.254 2.23-2.23a.282.282 0 00.001-.397z" fill="#033792"/><rect data-name="Rectangle 15" width="8.572" height="1.612" rx=".767" transform="translate(9.078 9.945)" fill="#033792"/><path data-name="Path 36" d="M7.882 13.477l-.189-.189a.282.282 0 00-.4 0l-2.06 2.061-1.089-1.089a.238.238 0 00-.336 0l-.254.254a.238.238 0 000 .336l1.507 1.508a.238.238 0 00.336 0l.254-.254 2.23-2.23a.282.282 0 000-.4z" fill="#033792"/><rect data-name="Rectangle 16" width="7.886" height="1.612" rx=".767" transform="translate(9.078 14.011)" fill="#033792"/><path data-name="Path 37" d="M7.882 17.544l-.189-.189a.282.282 0 00-.4 0l-2.06 2.061-1.089-1.089a.238.238 0 00-.336 0l-.254.254a.238.238 0 000 .336l1.507 1.508a.238.238 0 00.336 0l.254-.254 2.23-2.23a.282.282 0 00.001-.397z" fill="#033792"/><rect data-name="Rectangle 17" width="7.172" height="1.612" rx=".741" transform="translate(9.078 18.078)" fill="#033792"/><path data-name="Path 38" d="M7.882 21.61l-.189-.189a.282.282 0 00-.4 0l-2.06 2.061-1.089-1.089a.238.238 0 00-.336 0l-.254.254a.238.238 0 000 .336l1.507 1.508a.238.238 0 00.336 0l.254-.254 2.23-2.23a.282.282 0 00.001-.397z" fill="#033792"/><rect data-name="Rectangle 18" width="5.384" height="1.612" rx=".767" transform="translate(9.078 22.143)" fill="#033792"/><g data-name="Group 30"><path data-name="Path 39" d="M18.531 27.038a5.516 5.516 0 00-.382-2.259 4.762 4.762 0 01-.264-.942 2.435 2.435 0 01.23-1.482 1.241 1.241 0 011.179-.723 3.111 3.111 0 01.8.119c.23.058.461.116.693.176a.752.752 0 00.384-.006c.281-.069.564-.146.847-.213a2.458 2.458 0 01.708-.069 1.228 1.228 0 011.059.656 2.356 2.356 0 01.25.721 2.89 2.89 0 01-.157 1.492c-.108.321-.224.641-.314.967a5.143 5.143 0 00-.17 1.546 4.536 4.536 0 01-.065 1.024 3.239 3.239 0 01-.521 1.277 1.459 1.459 0 01-.346.357.607.607 0 01-.59.095.59.59 0 01-.323-.323 1.644 1.644 0 01-.139-.551c-.039-.421-.069-.843-.1-1.264a5.3 5.3 0 00-.139-1.022 1.01 1.01 0 00-.1-.23c-.062-.108-.159-.106-.226 0a1.027 1.027 0 00-.126.36 7.637 7.637 0 00-.119 1.11 9.224 9.224 0 01-.107 1.179 1.877 1.877 0 01-.117.416.572.572 0 01-.9.24 1.656 1.656 0 01-.481-.548 3.341 3.341 0 01-.446-1.432c-.008-.246-.01-.492-.018-.671z" fill="#033792"/><path data-name="Path 40" d="M18.863 26.925a5.728 5.728 0 00-.412-2.289 4.536 4.536 0 01-.236-.822 2.109 2.109 0 01.2-1.318.938.938 0 01.967-.533 4.918 4.918 0 01.954.189c.165.042.332.08.5.121a.877.877 0 00.421-.033c.3-.073.605-.154.91-.224a1.813 1.813 0 01.624-.045.921.921 0 01.763.582 2.149 2.149 0 01.149 1.368 7.174 7.174 0 01-.291.924 5.989 5.989 0 00-.329 1.5c-.019.227-.007.458-.008.687a4.778 4.778 0 01-.083 1.033 2.871 2.871 0 01-.464 1.084.949.949 0 01-.3.287.233.233 0 01-.284 0 .33.33 0 01-.1-.151 3.205 3.205 0 01-.105-.5c-.038-.382-.061-.763-.089-1.148a5.934 5.934 0 00-.139-1.06 1.043 1.043 0 00-.216-.452.423.423 0 00-.644 0 1 1 0 00-.208.416 4.18 4.18 0 00-.127.82c-.034.444-.06.889-.1 1.334a4.559 4.559 0 01-.085.5.6.6 0 01-.069.171.222.222 0 01-.3.1.745.745 0 01-.292-.234 2.569 2.569 0 01-.459-.906 3.846 3.846 0 01-.147-1.158zm2.1-3.694a1.625 1.625 0 00.232-.023 5.14 5.14 0 00.48-.139.624.624 0 01.472.021c.029.013.058.028.087.04.049.019.086 0 .118-.06a.078.078 0 00.015-.064.08.08 0 00-.037-.053.775.775 0 00-.465-.125 1.849 1.849 0 00-.375.094 1.386 1.386 0 01-.69.086 2.981 2.981 0 01-.476-.13.822.822 0 00-.7.06c-.065.035-.08.074-.049.133a.092.092 0 00.142.046.652.652 0 01.576-.033l.08.029a1.8 1.8 0 00.592.118z" fill="none"/></g></g></symbol><symbol viewBox="0 0 26.387 21.439" id="list" xmlns="http://www.w3.org/2000/svg"><path d="M4.123 16.492H.825a.825.825 0 00-.825.824v3.3a.825.825 0 00.825.825h3.3a.825.825 0 00.825-.825v-3.3a.825.825 0 00-.827-.824zM4.123 0H.825A.825.825 0 000 .825v3.3a.825.825 0 00.825.825h3.3a.825.825 0 00.822-.825v-3.3A.825.825 0 004.123 0zm0 8.246H.825A.825.825 0 000 9.07v3.3a.825.825 0 00.825.825h3.3a.825.825 0 00.825-.825v-3.3a.825.825 0 00-.827-.824zm21.439 9.07H9.07a.825.825 0 00-.825.825v1.649a.825.825 0 00.825.825h16.492a.825.825 0 00.825-.825v-1.649a.825.825 0 00-.825-.825zm0-16.492H9.07a.825.825 0 00-.825.825v1.649a.825.825 0 00.825.827h16.492a.825.825 0 00.825-.825V1.649a.825.825 0 00-.825-.824zm0 8.246H9.07a.825.825 0 00-.825.825v1.649a.825.825 0 00.825.825h16.492a.825.825 0 00.825-.825V9.895a.825.825 0 00-.825-.825z"/></symbol><symbol viewBox="0 0 19.285 11.249" id="menu" xmlns="http://www.w3.org/2000/svg"><path data-name="Path 60" d="M18.481 1.607H.8a.806.806 0 01-.8-.8.806.806 0 01.8-.8h17.681a.806.806 0 01.8.8.806.806 0 01-.8.8z" fill="#fff"/><path data-name="Path 61" d="M18.481 6.428H.8a.806.806 0 01-.8-.8.806.806 0 01.8-.8h17.681a.806.806 0 01.8.8.806.806 0 01-.8.8z" fill="#fff"/><path data-name="Path 62" d="M18.481 11.249H.8a.806.806 0 01-.8-.8.806.806 0 01.8-.8h17.681a.806.806 0 01.8.8.806.806 0 01-.8.8z" fill="#fff"/></symbol><symbol viewBox="0 0 45.268 33.567" id="payment" xmlns="http://www.w3.org/2000/svg"><g transform="translate(1)" stroke="#2a2a2a" stroke-width="2"><path data-name="Line 4" d="M8.112 0v13.184"/><path data-name="Line 5" fill="none" d="M8.112 26.57v6.777"/><rect data-name="Rectangle 11" width="16.224" height="7.585" rx="2.761" transform="translate(0 16.148)" fill="none"/><path data-name="Line 6" d="M21.724 33.567V16.286"/><path data-name="Line 7" d="M21.724 2.327V0"/><rect data-name="Rectangle 12" width="16.224" height="7.585" rx="2.761" transform="rotate(180 14.918 6.383)" fill="none"/><path data-name="Line 8" d="M35.156 33.347v-6.204"/><path data-name="Line 9" d="M35.156.201v11.432"/><rect data-name="Rectangle 13" width="16.335" height="7.585" rx="2.761" transform="rotate(180 21.634 11.822)" fill="none"/></g></symbol><symbol viewBox="0 0 45.268 33.567" id="payment-white" xmlns="http://www.w3.org/2000/svg"><g transform="translate(1)" stroke="#fff" stroke-width="2"><path data-name="Line 4" d="M8.112 0v13.184"/><path data-name="Line 5" fill="none" d="M8.112 26.57v6.777"/><rect data-name="Rectangle 11" width="16.224" height="7.585" rx="2.761" transform="translate(0 16.148)" fill="none"/><path data-name="Line 6" d="M21.724 33.567V16.286"/><path data-name="Line 7" d="M21.724 2.327V0"/><rect data-name="Rectangle 12" width="16.224" height="7.585" rx="2.761" transform="rotate(180 14.918 6.383)" fill="none"/><path data-name="Line 8" d="M35.156 33.347v-6.204"/><path data-name="Line 9" d="M35.156.201v11.432"/><rect data-name="Rectangle 13" width="16.335" height="7.585" rx="2.761" transform="rotate(180 21.634 11.822)" fill="none"/></g></symbol><symbol viewBox="0 0 37.298 27.385" id="paymentblue" xmlns="http://www.w3.org/2000/svg"><g transform="translate(1)" stroke="#033792" stroke-width="2"><path data-name="Line 4" d="M6.618 0v10.755"/><path data-name="Line 5" fill="none" d="M6.618 21.676v5.529"/><rect data-name="Rectangle 11" width="13.236" height="6.188" rx="2.761" transform="translate(0 13.174)" fill="none"/><path data-name="Line 6" d="M17.723 27.385V13.286"/><path data-name="Line 7" d="M17.723 1.898V0"/><rect data-name="Rectangle 12" width="13.236" height="6.188" rx="2.761" transform="rotate(180 12.17 5.208)" fill="none"/><path data-name="Line 8" d="M28.681 27.204v-5.061"/><path data-name="Line 9" d="M28.681.164V9.49"/><rect data-name="Rectangle 13" width="13.326" height="6.188" rx="2.761" transform="rotate(180 17.649 9.645)" fill="none"/></g></symbol><symbol viewBox="0 0 16.665 16.834" id="phonemob" xmlns="http://www.w3.org/2000/svg"><path d="M16.164 12.354v2.384a1.6 1.6 0 01-.51 1.177 1.567 1.567 0 01-1.207.412A15.778 15.778 0 012.925 9.12 15.813 15.813 0 01.507 2.232a1.6 1.6 0 01.406-1.214A1.569 1.569 0 012.075.5h2.358a1.58 1.58 0 011.579 1.366A10.275 10.275 0 006.564 4.1a1.6 1.6 0 01-.354 1.676l-1 1.009a12.657 12.657 0 004.723 4.766l1-1.009a1.565 1.565 0 011.662-.358 10.04 10.04 0 002.213.556 1.585 1.585 0 011.355 1.613z" fill="none" stroke="#fff" stroke-linecap="round" stroke-linejoin="round"/></symbol><symbol viewBox="0 0 25.437 25.444" id="search" xmlns="http://www.w3.org/2000/svg"><path data-name="Icon ionic-ios-search" d="M25.139 23.607l-7.075-7.141a10.082 10.082 0 10-1.53 1.55l7.028 7.091a1.089 1.089 0 001.537.04 1.1 1.1 0 00.04-1.54zm-15-5.5a7.961 7.961 0 115.631-2.332 7.912 7.912 0 01-5.628 2.322z" fill="#fff"/></symbol><symbol viewBox="0 0 17.413 17.417" id="searchmob" xmlns="http://www.w3.org/2000/svg"><path d="M17.209 16.157l-4.843-4.888a6.9 6.9 0 10-1.047 1.061l4.811 4.856a.745.745 0 001.052.027.75.75 0 00.027-1.056zM6.942 12.388a5.45 5.45 0 113.854-1.6 5.416 5.416 0 01-3.854 1.6z" fill="#fff"/></symbol><symbol viewBox="0 0 19.112 18.851" id="shop" xmlns="http://www.w3.org/2000/svg"><path d="M4.334 18.851a1.643 1.643 0 01-1.512-1.139L.011 6.521a.3.3 0 01.306-.382H4.63v.979a1.607 1.607 0 003.213 0v-.979h3.474v.979a1.607 1.607 0 003.214 0v-.979H18.8a.3.3 0 01.306.382l-2.81 11.192a1.644 1.644 0 01-1.513 1.139zM12.12 7.118V4.055a2.541 2.541 0 00-5.081 0v3.063a.8.8 0 01-1.607 0V4.055a4.148 4.148 0 018.294 0v3.063a.8.8 0 01-1.607 0z" fill="#6787BD"/></symbol><symbol viewBox="0 0 232.981 80.853" id="tabactive" xmlns="http://www.w3.org/2000/svg"><path data-name="Subtraction 1" d="M232.481 80.354H.5V.5h200.657l31.324 25.6v54.253z" fill="#033792" stroke="#033792"/></symbol><symbol viewBox="0 0 234 80.854" id="tabactivenext" xmlns="http://www.w3.org/2000/svg"><path data-name="Subtraction 2" d="M233.5 80.354H8.5a8.009 8.009 0 01-8-8V.5h201.538L233.5 26.1v54.253z" fill="#f5f5f5" stroke="#91b9ff"/></symbol><symbol viewBox="0 0 234 80.853" id="tabdefault" xmlns="http://www.w3.org/2000/svg"><path data-name="Subtraction 3" d="M233.5 80.354H.5V.5h201.538L233.5 26.1v54.253z" fill="#f5f5f5" stroke="#91b9ff"/></symbol><symbol fill="none" viewBox="0 0 15 12" id="triangle" xmlns="http://www.w3.org/2000/svg"><path fill="#377A90" stroke="#fff" stroke-width="2.194" d="M2.006 10.707l5.495-8.651 5.494 8.651H2.006z"/></symbol><symbol viewBox="0 0 512 512" id="twitter" xmlns="http://www.w3.org/2000/svg"><path d="M512 97.248c-19.04 8.352-39.328 13.888-60.48 16.576 21.76-12.992 38.368-33.408 46.176-58.016-20.288 12.096-42.688 20.64-66.56 25.408C411.872 60.704 384.416 48 354.464 48c-58.112 0-104.896 47.168-104.896 104.992 0 8.32.704 16.32 2.432 23.936-87.264-4.256-164.48-46.08-216.352-109.792-9.056 15.712-14.368 33.696-14.368 53.056 0 36.352 18.72 68.576 46.624 87.232-16.864-.32-33.408-5.216-47.424-12.928v1.152c0 51.008 36.384 93.376 84.096 103.136-8.544 2.336-17.856 3.456-27.52 3.456-6.72 0-13.504-.384-19.872-1.792 13.6 41.568 52.192 72.128 98.08 73.12-35.712 27.936-81.056 44.768-130.144 44.768-8.608 0-16.864-.384-25.12-1.44C46.496 446.88 101.6 464 161.024 464c193.152 0 298.752-160 298.752-298.688 0-4.64-.16-9.12-.384-13.568 20.832-14.784 38.336-33.248 52.608-54.496z"/></symbol><symbol viewBox="0 0 19 17.226" id="usermob" xmlns="http://www.w3.org/2000/svg"><path d="M.671 17.226A.664.664 0 010 16.559a6.371 6.371 0 016.38-6.347h6.24A6.371 6.371 0 0119 16.559a.663.663 0 01-.67.667zm.717-1.335h16.224a5.027 5.027 0 00-4.992-4.344H6.38a5.039 5.039 0 00-4.991 4.344zm3.775-11.62a4.306 4.306 0 114.306 4.283 4.3 4.3 0 01-4.306-4.283zm1.136 0a3.17 3.17 0 103.17-3.154A3.17 3.17 0 006.3 4.271z" fill="#fff"/></symbol><symbol viewBox="0 0 18.829 18.105" id="wishlist" xmlns="http://www.w3.org/2000/svg"><path d="M13.76 0h-.045a5.15 5.15 0 00-4.3 2.354A5.15 5.15 0 005.115 0h-.046A5.117 5.117 0 000 5.114a11.018 11.018 0 002.164 6.006 37.915 37.915 0 007.251 6.984 37.915 37.915 0 007.251-6.984 11.018 11.018 0 002.159-6.006A5.117 5.117 0 0013.76 0z" fill="#6787BD"/></symbol><symbol viewBox="0 0 20.812 20.015" id="wishlistheader" xmlns="http://www.w3.org/2000/svg"><path d="M15.212 0h-.05a5.693 5.693 0 00-4.754 2.6A5.693 5.693 0 005.654 0h-.05a5.657 5.657 0 00-5.6 5.654 12.181 12.181 0 002.392 6.64 41.916 41.916 0 008.016 7.721 41.916 41.916 0 008.013-7.721 12.181 12.181 0 002.387-6.64A5.657 5.657 0 0015.212 0z" fill="#fff"/></symbol></svg>